<svg xmlns="http://www.w3.org/2000/svg" xmlns:xlink="http://www.w3.org/1999/xlink" width="500" zoomAndPan="magnify" viewBox="0 0 375 374.999991" height="500" preserveAspectRatio="xMidYMid meet" version="1.0"><rect x="-37.5" width="450" fill="rgb(100%, 100%, 100%)" y="-37.499999" height="449.999989" fill-opacity="1"/><rect x="-37.5" width="450" fill="rgb(100%, 100%, 100%)" y="-37.499999" height="449.999989" fill-opacity="1"/><path fill="rgb(12.939453%, 13.328552%, 13.729858%)" d="M 328.054688 104.054688 L 335.691406 96.726562 C 340.484375 92.136719 344.898438 87.210938 348.941406 81.949219 C 352.980469 76.683594 356.59375 71.144531 359.785156 65.324219 C 362.976562 59.507812 365.707031 53.480469 367.972656 47.246094 C 370.242188 41.011719 372.019531 34.636719 373.3125 28.128906 C 373.402344 27.679688 373.480469 27.226562 373.542969 26.769531 C 373.605469 26.3125 373.652344 25.855469 373.6875 25.394531 C 373.722656 24.9375 373.742188 24.476562 373.746094 24.015625 C 373.753906 23.558594 373.746094 23.097656 373.722656 22.636719 C 373.699219 22.179688 373.664062 21.71875 373.613281 21.261719 C 373.5625 20.804688 373.5 20.347656 373.421875 19.894531 C 373.34375 19.441406 373.25 18.992188 373.144531 18.542969 C 373.039062 18.09375 372.917969 17.652344 372.785156 17.210938 C 372.652344 16.769531 372.503906 16.335938 372.34375 15.902344 C 372.183594 15.472656 372.011719 15.046875 371.824219 14.625 C 371.636719 14.203125 371.4375 13.789062 371.226562 13.378906 C 371.015625 12.972656 370.792969 12.570312 370.554688 12.175781 C 370.316406 11.78125 370.070312 11.394531 369.808594 11.011719 C 369.550781 10.632812 369.277344 10.261719 368.996094 9.898438 C 368.710938 9.535156 368.417969 9.183594 368.113281 8.839844 C 367.808594 8.492188 367.492188 8.160156 367.167969 7.832031 C 366.839844 7.507812 366.507812 7.191406 366.160156 6.886719 C 365.816406 6.582031 365.460938 6.289062 365.101562 6.003906 C 364.738281 5.722656 364.367188 5.449219 363.984375 5.191406 C 363.605469 4.929688 363.21875 4.679688 362.824219 4.445312 C 362.429688 4.207031 362.027344 3.984375 361.621094 3.773438 C 361.210938 3.5625 360.796875 3.363281 360.375 3.175781 C 359.953125 2.988281 359.527344 2.816406 359.097656 2.65625 C 358.664062 2.496094 358.230469 2.347656 357.789062 2.214844 C 357.347656 2.082031 356.90625 1.960938 356.457031 1.855469 C 356.007812 1.75 355.558594 1.65625 355.105469 1.578125 C 354.652344 1.5 354.195312 1.4375 353.738281 1.386719 C 353.28125 1.335938 352.820312 1.300781 352.363281 1.277344 C 351.902344 1.253906 351.441406 1.246094 350.980469 1.253906 C 350.523438 1.257812 350.0625 1.277344 349.605469 1.3125 C 349.144531 1.347656 348.6875 1.394531 348.230469 1.457031 C 347.773438 1.519531 347.320312 1.597656 346.871094 1.6875 C 340.363281 2.980469 333.988281 4.757812 327.753906 7.027344 C 321.519531 9.292969 315.492188 12.023438 309.675781 15.214844 C 303.855469 18.40625 298.316406 22.019531 293.050781 26.058594 C 287.789062 30.097656 282.863281 34.515625 278.273438 39.308594 L 270.945312 46.945312 L 152.089844 1.652344 C 151.582031 1.460938 151.0625 1.335938 150.523438 1.28125 C 149.984375 1.222656 149.449219 1.238281 148.914062 1.320312 C 148.378906 1.40625 147.867188 1.554688 147.371094 1.773438 C 146.875 1.992188 146.414062 2.265625 145.992188 2.605469 L 114.898438 27.480469 C 114.53125 27.773438 114.203125 28.101562 113.914062 28.46875 C 113.621094 28.835938 113.375 29.230469 113.171875 29.652344 C 112.96875 30.074219 112.816406 30.511719 112.714844 30.96875 C 112.613281 31.425781 112.5625 31.890625 112.5625 32.359375 C 112.5625 32.824219 112.617188 33.289062 112.722656 33.746094 C 112.828125 34.199219 112.984375 34.640625 113.1875 35.058594 C 113.394531 35.480469 113.644531 35.875 113.9375 36.238281 C 114.230469 36.601562 114.558594 36.929688 114.929688 37.222656 L 209.003906 111.464844 L 160.480469 162.007812 L 89.652344 138.382812 C 89.007812 138.164062 88.34375 138.054688 87.660156 138.058594 C 86.976562 138.058594 86.3125 138.171875 85.667969 138.390625 C 85.023438 138.613281 84.429688 138.933594 83.886719 139.347656 C 83.347656 139.765625 82.890625 140.261719 82.511719 140.828125 L 57.636719 178.140625 C 57.386719 178.515625 57.179688 178.914062 57.019531 179.332031 C 56.855469 179.75 56.738281 180.179688 56.667969 180.625 C 56.597656 181.066406 56.578125 181.511719 56.601562 181.960938 C 56.628906 182.410156 56.703125 182.851562 56.828125 183.28125 C 56.949219 183.714844 57.117188 184.128906 57.328125 184.523438 C 57.539062 184.921875 57.789062 185.289062 58.082031 185.632812 C 58.375 185.972656 58.699219 186.28125 59.058594 186.550781 C 59.414062 186.820312 59.796875 187.050781 60.207031 187.238281 L 120.957031 215.265625 L 116.785156 221.054688 C 115.925781 222.242188 115.175781 223.496094 114.539062 224.8125 C 113.902344 226.132812 113.382812 227.496094 112.988281 228.910156 C 112.59375 230.320312 112.324219 231.753906 112.183594 233.214844 C 112.042969 234.671875 112.03125 236.132812 112.148438 237.59375 C 112.265625 239.050781 112.511719 240.492188 112.882812 241.910156 C 113.257812 243.324219 113.753906 244.699219 114.371094 246.027344 C 114.988281 247.355469 115.714844 248.621094 116.558594 249.820312 C 117.398438 251.019531 118.339844 252.136719 119.378906 253.171875 L 121.820312 255.617188 C 122.855469 256.65625 123.96875 257.597656 125.171875 258.441406 C 126.371094 259.285156 127.636719 260.015625 128.964844 260.632812 C 130.292969 261.25 131.667969 261.746094 133.085938 262.117188 C 134.503906 262.492188 135.941406 262.738281 137.40625 262.855469 C 138.867188 262.972656 140.328125 262.960938 141.785156 262.820312 C 143.246094 262.679688 144.679688 262.410156 146.09375 262.015625 C 147.503906 261.617188 148.867188 261.101562 150.1875 260.460938 C 151.507812 259.824219 152.761719 259.074219 153.949219 258.210938 L 159.734375 254.042969 L 187.761719 314.792969 C 187.949219 315.203125 188.179688 315.585938 188.449219 315.945312 C 188.71875 316.300781 189.027344 316.625 189.367188 316.917969 C 189.710938 317.210938 190.078125 317.460938 190.476562 317.671875 C 190.871094 317.886719 191.285156 318.050781 191.71875 318.175781 C 192.148438 318.296875 192.589844 318.371094 193.039062 318.398438 C 193.488281 318.425781 193.933594 318.402344 194.375 318.332031 C 194.820312 318.261719 195.25 318.144531 195.667969 317.980469 C 196.085938 317.820312 196.484375 317.613281 196.859375 317.363281 L 234.171875 292.488281 C 234.738281 292.109375 235.230469 291.652344 235.648438 291.109375 C 236.0625 290.570312 236.382812 289.976562 236.605469 289.332031 C 236.824219 288.6875 236.9375 288.023438 236.9375 287.339844 C 236.941406 286.65625 236.835938 285.992188 236.617188 285.347656 L 212.992188 214.519531 L 263.535156 165.996094 L 337.777344 260.070312 C 338.367188 260.816406 339.085938 261.394531 339.941406 261.8125 C 340.792969 262.226562 341.695312 262.4375 342.644531 262.4375 L 342.660156 262.4375 C 343.605469 262.4375 344.503906 262.234375 345.355469 261.824219 C 346.207031 261.414062 346.929688 260.84375 347.519531 260.105469 L 372.394531 229.011719 C 372.734375 228.585938 373.011719 228.128906 373.230469 227.632812 C 373.445312 227.136719 373.597656 226.621094 373.679688 226.085938 C 373.765625 225.550781 373.777344 225.015625 373.722656 224.476562 C 373.664062 223.9375 373.542969 223.414062 373.347656 222.90625 Z M 150.984375 14.539062 L 261.585938 56.691406 L 217.644531 102.445312 L 128.777344 32.308594 Z M 90.226562 151.683594 L 151.917969 172.261719 L 128.304688 204.957031 L 72.019531 178.992188 Z M 146.675781 248.117188 C 146.082031 248.546875 145.457031 248.921875 144.796875 249.242188 C 144.136719 249.5625 143.457031 249.820312 142.75 250.015625 C 142.046875 250.214844 141.328125 250.351562 140.597656 250.421875 C 139.871094 250.492188 139.140625 250.496094 138.410156 250.4375 C 137.679688 250.378906 136.960938 250.257812 136.253906 250.074219 C 135.542969 249.886719 134.855469 249.640625 134.191406 249.332031 C 133.527344 249.023438 132.894531 248.660156 132.296875 248.238281 C 131.695312 247.820312 131.136719 247.347656 130.621094 246.828125 L 128.179688 244.382812 C 127.660156 243.867188 127.1875 243.308594 126.769531 242.707031 C 126.347656 242.109375 125.984375 241.476562 125.675781 240.808594 C 125.367188 240.144531 125.117188 239.457031 124.929688 238.75 C 124.746094 238.042969 124.621094 237.320312 124.5625 236.589844 C 124.503906 235.859375 124.507812 235.128906 124.578125 234.402344 C 124.648438 233.671875 124.785156 232.953125 124.980469 232.246094 C 125.179688 231.542969 125.4375 230.859375 125.757812 230.199219 C 126.074219 229.539062 126.449219 228.914062 126.878906 228.320312 C 167.160156 172.382812 161.730469 179.914062 165.355469 174.894531 L 287.25 47.921875 C 291.402344 43.585938 295.859375 39.589844 300.621094 35.933594 C 305.382812 32.28125 310.394531 29.007812 315.660156 26.121094 C 320.921875 23.234375 326.375 20.765625 332.015625 18.714844 C 337.660156 16.660156 343.421875 15.050781 349.3125 13.882812 C 349.714844 13.800781 350.121094 13.746094 350.53125 13.714844 C 350.941406 13.683594 351.351562 13.679688 351.761719 13.699219 C 352.175781 13.71875 352.582031 13.765625 352.988281 13.835938 C 353.394531 13.90625 353.792969 14 354.1875 14.117188 C 354.578125 14.238281 354.964844 14.382812 355.339844 14.546875 C 355.71875 14.714844 356.082031 14.902344 356.433594 15.113281 C 356.789062 15.328125 357.125 15.558594 357.449219 15.8125 C 357.773438 16.066406 358.082031 16.335938 358.371094 16.628906 C 358.664062 16.917969 358.9375 17.226562 359.1875 17.550781 C 359.441406 17.875 359.675781 18.210938 359.886719 18.566406 C 360.097656 18.917969 360.285156 19.28125 360.453125 19.660156 C 360.617188 20.035156 360.761719 20.421875 360.882812 20.8125 C 361 21.207031 361.09375 21.605469 361.164062 22.011719 C 361.234375 22.417969 361.28125 22.824219 361.300781 23.238281 C 361.320312 23.648438 361.316406 24.058594 361.285156 24.46875 C 361.253906 24.878906 361.199219 25.285156 361.117188 25.6875 C 359.949219 31.578125 358.339844 37.339844 356.285156 42.984375 C 354.234375 48.625 351.765625 54.078125 348.878906 59.339844 C 345.992188 64.605469 342.71875 69.617188 339.066406 74.378906 C 335.410156 79.144531 331.414062 83.597656 327.078125 87.75 C 280.132812 132.816406 251.5 160.304688 201.566406 208.242188 L 201.527344 208.273438 C 160.113281 238.511719 172.285156 229.675781 146.675781 248.117188 Z M 196.007812 302.980469 L 170.042969 246.695312 L 202.734375 223.082031 L 223.316406 284.773438 Z M 342.691406 246.222656 L 272.554688 157.355469 L 318.308594 113.414062 L 360.460938 224.019531 Z M 342.691406 246.222656 " fill-opacity="1" fill-rule="nonzero"/><path fill="rgb(12.939453%, 13.328552%, 13.729858%)" d="M 104.519531 270.480469 C 104.234375 270.191406 103.917969 269.933594 103.578125 269.707031 C 103.238281 269.476562 102.882812 269.285156 102.503906 269.128906 C 102.125 268.972656 101.738281 268.855469 101.335938 268.777344 C 100.9375 268.695312 100.53125 268.65625 100.125 268.65625 C 99.714844 268.65625 99.3125 268.695312 98.910156 268.777344 C 98.511719 268.855469 98.121094 268.972656 97.746094 269.128906 C 97.367188 269.285156 97.007812 269.476562 96.667969 269.707031 C 96.328125 269.933594 96.015625 270.191406 95.726562 270.480469 L 2.445312 363.761719 C 2.15625 364.050781 1.902344 364.367188 1.679688 364.707031 C 1.453125 365.042969 1.265625 365.402344 1.113281 365.777344 C 0.957031 366.15625 0.84375 366.542969 0.765625 366.941406 C 0.6875 367.34375 0.648438 367.746094 0.648438 368.152344 C 0.652344 368.558594 0.691406 368.960938 0.773438 369.359375 C 0.851562 369.757812 0.96875 370.144531 1.125 370.519531 C 1.28125 370.894531 1.472656 371.253906 1.699219 371.589844 C 1.925781 371.929688 2.183594 372.242188 2.472656 372.527344 C 2.757812 372.816406 3.070312 373.074219 3.410156 373.300781 C 3.746094 373.527344 4.105469 373.71875 4.480469 373.875 C 4.855469 374.03125 5.242188 374.148438 5.640625 374.226562 C 6.039062 374.308594 6.441406 374.347656 6.847656 374.351562 C 7.253906 374.351562 7.660156 374.3125 8.058594 374.234375 C 8.457031 374.15625 8.84375 374.042969 9.222656 373.886719 C 9.597656 373.734375 9.957031 373.546875 10.292969 373.320312 C 10.632812 373.097656 10.949219 372.839844 11.238281 372.554688 L 104.519531 279.273438 C 104.808594 278.984375 105.066406 278.667969 105.292969 278.332031 C 105.523438 277.992188 105.714844 277.632812 105.871094 277.253906 C 106.027344 276.878906 106.144531 276.488281 106.222656 276.089844 C 106.304688 275.6875 106.34375 275.285156 106.34375 274.875 C 106.34375 274.46875 106.304688 274.0625 106.222656 273.664062 C 106.144531 273.261719 106.027344 272.875 105.871094 272.496094 C 105.714844 272.117188 105.523438 271.761719 105.292969 271.421875 C 105.066406 271.082031 104.808594 270.765625 104.519531 270.480469 Z M 104.519531 270.480469 " fill-opacity="1" fill-rule="nonzero"/><path fill="rgb(12.939453%, 13.328552%, 13.729858%)" d="M 120.601562 282.917969 L 52.195312 351.324219 C 51.910156 351.613281 51.65625 351.929688 51.433594 352.269531 C 51.210938 352.605469 51.023438 352.964844 50.871094 353.339844 C 50.71875 353.71875 50.601562 354.105469 50.527344 354.503906 C 50.449219 354.902344 50.410156 355.304688 50.414062 355.710938 C 50.414062 356.117188 50.457031 356.519531 50.535156 356.914062 C 50.617188 357.3125 50.734375 357.699219 50.890625 358.074219 C 51.046875 358.449219 51.238281 358.804688 51.464844 359.140625 C 51.691406 359.480469 51.949219 359.792969 52.234375 360.078125 C 52.523438 360.367188 52.832031 360.621094 53.171875 360.847656 C 53.507812 361.074219 53.863281 361.265625 54.238281 361.421875 C 54.613281 361.578125 55 361.695312 55.398438 361.777344 C 55.796875 361.855469 56.199219 361.898438 56.605469 361.898438 C 57.007812 361.902344 57.410156 361.863281 57.808594 361.789062 C 58.207031 361.710938 58.597656 361.59375 58.972656 361.441406 C 59.347656 361.289062 59.707031 361.101562 60.046875 360.878906 C 60.382812 360.65625 60.699219 360.402344 60.988281 360.117188 L 129.398438 291.710938 C 129.679688 291.421875 129.933594 291.105469 130.15625 290.765625 C 130.378906 290.425781 130.570312 290.070312 130.722656 289.695312 C 130.875 289.316406 130.988281 288.929688 131.066406 288.53125 C 131.144531 288.132812 131.179688 287.730469 131.179688 287.324219 C 131.175781 286.917969 131.136719 286.515625 131.054688 286.117188 C 130.976562 285.722656 130.855469 285.335938 130.699219 284.960938 C 130.542969 284.585938 130.351562 284.230469 130.128906 283.890625 C 129.902344 283.554688 129.644531 283.242188 129.359375 282.957031 C 129.070312 282.667969 128.757812 282.410156 128.421875 282.1875 C 128.085938 281.960938 127.726562 281.769531 127.351562 281.613281 C 126.980469 281.457031 126.59375 281.339844 126.195312 281.257812 C 125.796875 281.175781 125.394531 281.136719 124.988281 281.132812 C 124.582031 281.132812 124.179688 281.171875 123.78125 281.246094 C 123.382812 281.324219 122.996094 281.4375 122.621094 281.59375 C 122.242188 281.746094 121.886719 281.933594 121.546875 282.15625 C 121.207031 282.378906 120.894531 282.632812 120.601562 282.917969 Z M 120.601562 282.917969 " fill-opacity="1" fill-rule="nonzero"/><path fill="rgb(12.939453%, 13.328552%, 13.729858%)" d="M 23.675781 322.804688 L 92.082031 254.398438 C 92.367188 254.105469 92.621094 253.792969 92.84375 253.453125 C 93.066406 253.113281 93.253906 252.757812 93.40625 252.378906 C 93.5625 252.003906 93.675781 251.617188 93.753906 251.21875 C 93.828125 250.820312 93.867188 250.417969 93.867188 250.011719 C 93.863281 249.605469 93.824219 249.203125 93.742188 248.804688 C 93.660156 248.40625 93.542969 248.023438 93.386719 247.648438 C 93.230469 247.273438 93.039062 246.917969 92.8125 246.578125 C 92.585938 246.242188 92.332031 245.929688 92.042969 245.640625 C 91.757812 245.355469 91.445312 245.097656 91.109375 244.871094 C 90.769531 244.648438 90.414062 244.457031 90.039062 244.300781 C 89.664062 244.144531 89.277344 244.023438 88.882812 243.945312 C 88.484375 243.863281 88.082031 243.824219 87.675781 243.820312 C 87.269531 243.820312 86.867188 243.855469 86.46875 243.933594 C 86.070312 244.011719 85.683594 244.125 85.304688 244.277344 C 84.929688 244.429688 84.574219 244.621094 84.234375 244.84375 C 83.894531 245.066406 83.578125 245.320312 83.289062 245.601562 L 14.882812 314.011719 C 14.597656 314.300781 14.34375 314.617188 14.121094 314.953125 C 13.898438 315.292969 13.710938 315.652344 13.558594 316.027344 C 13.40625 316.402344 13.289062 316.792969 13.210938 317.191406 C 13.136719 317.589844 13.097656 317.992188 13.101562 318.394531 C 13.101562 318.800781 13.144531 319.203125 13.222656 319.601562 C 13.304688 320 13.421875 320.386719 13.578125 320.761719 C 13.734375 321.136719 13.925781 321.492188 14.152344 321.828125 C 14.378906 322.167969 14.632812 322.476562 14.921875 322.765625 C 15.207031 323.050781 15.519531 323.308594 15.859375 323.535156 C 16.195312 323.761719 16.550781 323.953125 16.925781 324.109375 C 17.300781 324.265625 17.6875 324.382812 18.085938 324.464844 C 18.480469 324.542969 18.882812 324.585938 19.289062 324.585938 C 19.695312 324.589844 20.097656 324.550781 20.496094 324.472656 C 20.894531 324.398438 21.28125 324.28125 21.660156 324.128906 C 22.035156 323.976562 22.394531 323.789062 22.730469 323.566406 C 23.070312 323.34375 23.386719 323.089844 23.675781 322.804688 Z M 23.675781 322.804688 " fill-opacity="1" fill-rule="nonzero"/></svg>