<svg id="SvgjsSvg1001" width="288" height="288" xmlns="http://www.w3.org/2000/svg" version="1.1" xmlns:xlink="http://www.w3.org/1999/xlink" xmlns:svgjs="http://svgjs.com/svgjs"><defs id="SvgjsDefs1002"></defs><g id="SvgjsG1008"><svg xmlns="http://www.w3.org/2000/svg" width="288" height="288" version="1.0" viewBox="0 0 375 375"><rect width="450" height="450" x="-37.5" y="-37.5" fill="transparent" class="colorFFF svgShape"></rect><rect width="450" height="450" x="-37.5" y="-37.5" fill="transparent" class="colorFFF svgShape"></rect><path d="M162.5 312.5L162.5 325 175 325 175 312.5 162.5 312.5M200 325L212.5 325 212.5 312.5 200 312.5 200 325M31.25 81.25L31.25 93.75 43.75 93.75 43.75 81.25 31.25 81.25M31.25 118.75L43.75 118.75 43.75 106.25 31.25 106.25 31.25 118.75M31.25 143.75L43.75 143.75 43.75 131.25 31.25 131.25 31.25 143.75M31.25 168.75L43.75 168.75 43.75 156.25 31.25 156.25 31.25 168.75M31.25 193.75L43.75 193.75 43.75 181.25 31.25 181.25 31.25 193.75M31.25 218.75L43.75 218.75 43.75 206.25 31.25 206.25 31.25 218.75M31.25 243.75L43.75 243.75 43.75 231.25 31.25 231.25 31.25 243.75M31.25 268.75L43.75 268.75 43.75 256.25 31.25 256.25 31.25 268.75M31.25 293.75L43.75 293.75 43.75 281.25 31.25 281.25 31.25 293.75M31.25 318.75L43.75 318.75 43.75 306.25 31.25 306.25 31.25 318.75M343.75 81.25L331.25 81.25 331.25 93.75 343.75 93.75 343.75 81.25M343.75 106.25L331.25 106.25 331.25 118.75 343.75 118.75 343.75 106.25M343.75 131.25L331.25 131.25 331.25 143.75 343.75 143.75 343.75 131.25M343.75 156.25L331.25 156.25 331.25 168.75 343.75 168.75 343.75 156.25M343.75 181.25L331.25 181.25 331.25 193.75 343.75 193.75 343.75 181.25M343.75 206.25L331.25 206.25 331.25 218.75 343.75 218.75 343.75 206.25M343.75 231.25L331.25 231.25 331.25 243.75 343.75 243.75 343.75 231.25M343.75 256.25L331.25 256.25 331.25 268.75 343.75 268.75 343.75 256.25" fill="#ffffff" class="color000 svgShape"></path><path d="M 362.5 362.5 L 318.75 362.5 L 318.75 350 L 362.5 350 Z M 318.75 68.75 L 356.25 68.75 L 356.25 337.5 L 318.75 337.5 Z M 306.25 362.5 L 237.5 362.5 L 237.5 287.5 L 243.75 287.5 C 247.191406 287.5 250 284.691406 250 281.25 L 250 275 C 250 240.550781 221.949219 212.5 187.5 212.5 C 153.050781 212.5 125 240.550781 125 275 L 125 281.25 C 125 284.691406 127.808594 287.5 131.25 287.5 L 137.5 287.5 L 137.5 362.5 L 68.75 362.5 L 68.75 12.5 L 306.25 12.5 Z M 225 362.5 L 193.75 362.5 L 193.75 287.5 L 225 287.5 Z M 137.5 275 C 137.5 247.4375 159.9375 225 187.5 225 C 215.0625 225 237.5 247.4375 237.5 275 Z M 181.25 362.5 L 150 362.5 L 150 287.5 L 181.25 287.5 Z M 56.25 337.5 L 18.75 337.5 L 18.75 68.75 L 56.25 68.75 Z M 56.25 362.5 L 12.5 362.5 L 12.5 350 L 56.25 350 Z M 368.75 337.5 L 368.75 62.5 C 368.75 59.058594 365.941406 56.25 362.5 56.25 L 318.75 56.25 L 318.75 6.25 C 318.75 2.808594 315.941406 0 312.5 0 L 62.5 0 C 59.058594 0 56.25 2.808594 56.25 6.25 L 56.25 56.25 L 12.5 56.25 C 9.058594 56.25 6.25 59.058594 6.25 62.5 L 6.25 337.5 C 2.808594 337.5 0 340.308594 0 343.75 L 0 368.75 C 0 372.191406 2.808594 375 6.25 375 L 368.75 375 C 372.191406 375 375 372.191406 375 368.75 L 375 343.75 C 375 340.308594 372.191406 337.5 368.75 337.5 " fill="#ffffff" class="color000 svgShape"></path><path d="M275 87.5L250 87.5 250 62.5C250 55.613281 255.640625 50 262.5 50 269.359375 50 275 55.613281 275 62.5zM287.5 87.5L287.5 62.5C287.5 48.679688 276.316406 37.5 262.5 37.5 248.679688 37.5 237.5 48.679688 237.5 62.5L237.5 87.5 231.25 87.5 231.25 100 293.75 100 293.75 87.5 287.5 87.5M275 175L250 175 250 150C250 143.113281 255.640625 137.5 262.5 137.5 269.359375 137.5 275 143.113281 275 150zM287.5 175L287.5 150C287.5 136.179688 276.316406 125 262.5 125 248.679688 125 237.5 136.179688 237.5 150L237.5 175 231.25 175 231.25 187.5 293.75 187.5 293.75 175 287.5 175M200 175L175 175 175 150C175 143.113281 180.640625 137.5 187.5 137.5 194.359375 137.5 200 143.113281 200 150zM212.5 175L212.5 150C212.5 136.179688 201.316406 125 187.5 125 173.679688 125 162.5 136.179688 162.5 150L162.5 175 156.25 175 156.25 187.5 218.75 187.5 218.75 175 212.5 175M125 175L100 175 100 150C100 143.113281 105.640625 137.5 112.5 137.5 119.359375 137.5 125 143.113281 125 150zM137.5 175L137.5 150C137.5 136.179688 126.316406 125 112.5 125 98.679688 125 87.5 136.179688 87.5 150L87.5 175 81.25 175 81.25 187.5 143.75 187.5 143.75 175 137.5 175M200 87.5L175 87.5 175 62.5C175 55.613281 180.640625 50 187.5 50 194.359375 50 200 55.613281 200 62.5zM212.5 87.5L212.5 62.5C212.5 48.679688 201.316406 37.5 187.5 37.5 173.679688 37.5 162.5 48.679688 162.5 62.5L162.5 87.5 156.25 87.5 156.25 100 218.75 100 218.75 87.5 212.5 87.5M125 87.5L100 87.5 100 62.5C100 55.613281 105.640625 50 112.5 50 119.359375 50 125 55.613281 125 62.5zM137.5 87.5L137.5 62.5C137.5 48.679688 126.316406 37.5 112.5 37.5 98.679688 37.5 87.5 48.679688 87.5 62.5L87.5 87.5 81.25 87.5 81.25 100 143.75 100 143.75 87.5 137.5 87.5M343.75 281.25L331.25 281.25 331.25 293.75 343.75 293.75 343.75 281.25M343.75 306.25L331.25 306.25 331.25 318.75 343.75 318.75 343.75 306.25" fill="#ffffff" class="color000 svgShape"></path></svg></g></svg>