<svg xmlns="http://www.w3.org/2000/svg" xmlns:xlink="http://www.w3.org/1999/xlink" width="500" zoomAndPan="magnify" viewBox="0 0 375 374.999991" height="500" preserveAspectRatio="xMidYMid meet" version="1.0"><rect x="-37.5" width="450" fill="rgb(100%, 100%, 100%)" y="-37.499999" height="449.999989" fill-opacity="1"/><rect x="-37.5" width="450" fill="rgb(100%, 100%, 100%)" y="-37.499999" height="449.999989" fill-opacity="1"/><path fill="rgb(0%, 0%, 0%)" d="M 162.5 312.5 L 162.5 325 L 175 325 L 175 312.5 L 162.5 312.5 " fill-opacity="1" fill-rule="nonzero"/><path fill="rgb(0%, 0%, 0%)" d="M 200 325 L 212.5 325 L 212.5 312.5 L 200 312.5 L 200 325 " fill-opacity="1" fill-rule="nonzero"/><path fill="rgb(0%, 0%, 0%)" d="M 31.25 81.25 L 31.25 93.75 L 43.75 93.75 L 43.75 81.25 L 31.25 81.25 " fill-opacity="1" fill-rule="nonzero"/><path fill="rgb(0%, 0%, 0%)" d="M 31.25 118.75 L 43.75 118.75 L 43.75 106.25 L 31.25 106.25 L 31.25 118.75 " fill-opacity="1" fill-rule="nonzero"/><path fill="rgb(0%, 0%, 0%)" d="M 31.25 143.75 L 43.75 143.75 L 43.75 131.25 L 31.25 131.25 L 31.25 143.75 " fill-opacity="1" fill-rule="nonzero"/><path fill="rgb(0%, 0%, 0%)" d="M 31.25 168.75 L 43.75 168.75 L 43.75 156.25 L 31.25 156.25 L 31.25 168.75 " fill-opacity="1" fill-rule="nonzero"/><path fill="rgb(0%, 0%, 0%)" d="M 31.25 193.75 L 43.75 193.75 L 43.75 181.25 L 31.25 181.25 L 31.25 193.75 " fill-opacity="1" fill-rule="nonzero"/><path fill="rgb(0%, 0%, 0%)" d="M 31.25 218.75 L 43.75 218.75 L 43.75 206.25 L 31.25 206.25 L 31.25 218.75 " fill-opacity="1" fill-rule="nonzero"/><path fill="rgb(0%, 0%, 0%)" d="M 31.25 243.75 L 43.75 243.75 L 43.75 231.25 L 31.25 231.25 L 31.25 243.75 " fill-opacity="1" fill-rule="nonzero"/><path fill="rgb(0%, 0%, 0%)" d="M 31.25 268.75 L 43.75 268.75 L 43.75 256.25 L 31.25 256.25 L 31.25 268.75 " fill-opacity="1" fill-rule="nonzero"/><path fill="rgb(0%, 0%, 0%)" d="M 31.25 293.75 L 43.75 293.75 L 43.75 281.25 L 31.25 281.25 L 31.25 293.75 " fill-opacity="1" fill-rule="nonzero"/><path fill="rgb(0%, 0%, 0%)" d="M 31.25 318.75 L 43.75 318.75 L 43.75 306.25 L 31.25 306.25 L 31.25 318.75 " fill-opacity="1" fill-rule="nonzero"/><path fill="rgb(0%, 0%, 0%)" d="M 343.75 81.25 L 331.25 81.25 L 331.25 93.75 L 343.75 93.75 L 343.75 81.25 " fill-opacity="1" fill-rule="nonzero"/><path fill="rgb(0%, 0%, 0%)" d="M 343.75 106.25 L 331.25 106.25 L 331.25 118.75 L 343.75 118.75 L 343.75 106.25 " fill-opacity="1" fill-rule="nonzero"/><path fill="rgb(0%, 0%, 0%)" d="M 343.75 131.25 L 331.25 131.25 L 331.25 143.75 L 343.75 143.75 L 343.75 131.25 " fill-opacity="1" fill-rule="nonzero"/><path fill="rgb(0%, 0%, 0%)" d="M 343.75 156.25 L 331.25 156.25 L 331.25 168.75 L 343.75 168.75 L 343.75 156.25 " fill-opacity="1" fill-rule="nonzero"/><path fill="rgb(0%, 0%, 0%)" d="M 343.75 181.25 L 331.25 181.25 L 331.25 193.75 L 343.75 193.75 L 343.75 181.25 " fill-opacity="1" fill-rule="nonzero"/><path fill="rgb(0%, 0%, 0%)" d="M 343.75 206.25 L 331.25 206.25 L 331.25 218.75 L 343.75 218.75 L 343.75 206.25 " fill-opacity="1" fill-rule="nonzero"/><path fill="rgb(0%, 0%, 0%)" d="M 343.75 231.25 L 331.25 231.25 L 331.25 243.75 L 343.75 243.75 L 343.75 231.25 " fill-opacity="1" fill-rule="nonzero"/><path fill="rgb(0%, 0%, 0%)" d="M 343.75 256.25 L 331.25 256.25 L 331.25 268.75 L 343.75 268.75 L 343.75 256.25 " fill-opacity="1" fill-rule="nonzero"/><path fill="rgb(0%, 0%, 0%)" d="M 362.5 362.5 L 318.75 362.5 L 318.75 350 L 362.5 350 Z M 318.75 68.75 L 356.25 68.75 L 356.25 337.5 L 318.75 337.5 Z M 306.25 362.5 L 237.5 362.5 L 237.5 287.5 L 243.75 287.5 C 247.191406 287.5 250 284.691406 250 281.25 L 250 275 C 250 240.550781 221.949219 212.5 187.5 212.5 C 153.050781 212.5 125 240.550781 125 275 L 125 281.25 C 125 284.691406 127.808594 287.5 131.25 287.5 L 137.5 287.5 L 137.5 362.5 L 68.75 362.5 L 68.75 12.5 L 306.25 12.5 Z M 225 362.5 L 193.75 362.5 L 193.75 287.5 L 225 287.5 Z M 137.5 275 C 137.5 247.4375 159.9375 225 187.5 225 C 215.0625 225 237.5 247.4375 237.5 275 Z M 181.25 362.5 L 150 362.5 L 150 287.5 L 181.25 287.5 Z M 56.25 337.5 L 18.75 337.5 L 18.75 68.75 L 56.25 68.75 Z M 56.25 362.5 L 12.5 362.5 L 12.5 350 L 56.25 350 Z M 368.75 337.5 L 368.75 62.5 C 368.75 59.058594 365.941406 56.25 362.5 56.25 L 318.75 56.25 L 318.75 6.25 C 318.75 2.808594 315.941406 0 312.5 0 L 62.5 0 C 59.058594 0 56.25 2.808594 56.25 6.25 L 56.25 56.25 L 12.5 56.25 C 9.058594 56.25 6.25 59.058594 6.25 62.5 L 6.25 337.5 C 2.808594 337.5 0 340.308594 0 343.75 L 0 368.75 C 0 372.191406 2.808594 375 6.25 375 L 368.75 375 C 372.191406 375 375 372.191406 375 368.75 L 375 343.75 C 375 340.308594 372.191406 337.5 368.75 337.5 " fill-opacity="1" fill-rule="nonzero"/><path fill="rgb(0%, 0%, 0%)" d="M 275 87.5 L 250 87.5 L 250 62.5 C 250 55.613281 255.640625 50 262.5 50 C 269.359375 50 275 55.613281 275 62.5 Z M 287.5 87.5 L 287.5 62.5 C 287.5 48.679688 276.316406 37.5 262.5 37.5 C 248.679688 37.5 237.5 48.679688 237.5 62.5 L 237.5 87.5 L 231.25 87.5 L 231.25 100 L 293.75 100 L 293.75 87.5 L 287.5 87.5 " fill-opacity="1" fill-rule="nonzero"/><path fill="rgb(0%, 0%, 0%)" d="M 275 175 L 250 175 L 250 150 C 250 143.113281 255.640625 137.5 262.5 137.5 C 269.359375 137.5 275 143.113281 275 150 Z M 287.5 175 L 287.5 150 C 287.5 136.179688 276.316406 125 262.5 125 C 248.679688 125 237.5 136.179688 237.5 150 L 237.5 175 L 231.25 175 L 231.25 187.5 L 293.75 187.5 L 293.75 175 L 287.5 175 " fill-opacity="1" fill-rule="nonzero"/><path fill="rgb(0%, 0%, 0%)" d="M 200 175 L 175 175 L 175 150 C 175 143.113281 180.640625 137.5 187.5 137.5 C 194.359375 137.5 200 143.113281 200 150 Z M 212.5 175 L 212.5 150 C 212.5 136.179688 201.316406 125 187.5 125 C 173.679688 125 162.5 136.179688 162.5 150 L 162.5 175 L 156.25 175 L 156.25 187.5 L 218.75 187.5 L 218.75 175 L 212.5 175 " fill-opacity="1" fill-rule="nonzero"/><path fill="rgb(0%, 0%, 0%)" d="M 125 175 L 100 175 L 100 150 C 100 143.113281 105.640625 137.5 112.5 137.5 C 119.359375 137.5 125 143.113281 125 150 Z M 137.5 175 L 137.5 150 C 137.5 136.179688 126.316406 125 112.5 125 C 98.679688 125 87.5 136.179688 87.5 150 L 87.5 175 L 81.25 175 L 81.25 187.5 L 143.75 187.5 L 143.75 175 L 137.5 175 " fill-opacity="1" fill-rule="nonzero"/><path fill="rgb(0%, 0%, 0%)" d="M 200 87.5 L 175 87.5 L 175 62.5 C 175 55.613281 180.640625 50 187.5 50 C 194.359375 50 200 55.613281 200 62.5 Z M 212.5 87.5 L 212.5 62.5 C 212.5 48.679688 201.316406 37.5 187.5 37.5 C 173.679688 37.5 162.5 48.679688 162.5 62.5 L 162.5 87.5 L 156.25 87.5 L 156.25 100 L 218.75 100 L 218.75 87.5 L 212.5 87.5 " fill-opacity="1" fill-rule="nonzero"/><path fill="rgb(0%, 0%, 0%)" d="M 125 87.5 L 100 87.5 L 100 62.5 C 100 55.613281 105.640625 50 112.5 50 C 119.359375 50 125 55.613281 125 62.5 Z M 137.5 87.5 L 137.5 62.5 C 137.5 48.679688 126.316406 37.5 112.5 37.5 C 98.679688 37.5 87.5 48.679688 87.5 62.5 L 87.5 87.5 L 81.25 87.5 L 81.25 100 L 143.75 100 L 143.75 87.5 L 137.5 87.5 " fill-opacity="1" fill-rule="nonzero"/><path fill="rgb(0%, 0%, 0%)" d="M 343.75 281.25 L 331.25 281.25 L 331.25 293.75 L 343.75 293.75 L 343.75 281.25 " fill-opacity="1" fill-rule="nonzero"/><path fill="rgb(0%, 0%, 0%)" d="M 343.75 306.25 L 331.25 306.25 L 331.25 318.75 L 343.75 318.75 L 343.75 306.25 " fill-opacity="1" fill-rule="nonzero"/></svg>