<svg id="SvgjsSvg1001" width="288" height="288" xmlns="http://www.w3.org/2000/svg" version="1.1" xmlns:xlink="http://www.w3.org/1999/xlink" xmlns:svgjs="http://svgjs.com/svgjs"><defs id="SvgjsDefs1002"></defs><g id="SvgjsG1008"><svg xmlns="http://www.w3.org/2000/svg" width="288" height="288" class="MuiSvgIcon-root" viewBox="0 0 24 24"><path fill-rule="evenodd" d="M12 11.25C11.172 11.25 10.5 10.578 10.5 9.75C10.5 8.922 11.172 8.25 12 8.25C12.828 8.25 13.5 8.922 13.5 9.75C13.5 10.578 12.828 11.25 12 11.25ZM12 2.25C7.8585 2.25 4.5 5.60775 4.5 9.75C4.5 15 12 21.75 12 21.75C12 21.75 19.5 15 19.5 9.75C19.5 5.60775 16.1415 2.25 12 2.25ZM12 12.75C13.6545 12.75 15 11.4045 15 9.75C15 8.0955 13.6545 6.75 12 6.75C10.3455 6.75 9 8.0955 9 9.75C9 11.4045 10.3455 12.75 12 12.75ZM12 3.75C15.3083 3.75 18 6.44175 18 9.75C18 12.792 14.2965 17.2657 12 19.641C9.7035 17.2657 6 12.792 6 9.75C6 6.44175 8.69175 3.75 12 3.75Z" clip-rule="evenodd" fill="#ffffff" class="color000 svgShape"></path></svg></g></svg>