<svg width="388" height="130" viewBox="0 0 388 130" fill="none" xmlns="http://www.w3.org/2000/svg">
<path d="M63.3297 126.756C96.9247 126.756 124.159 98.5656 124.159 63.7906C124.159 29.0156 96.9247 0.82489 63.3297 0.82489C29.7347 0.82489 2.50055 29.0156 2.50055 63.7906C2.50055 98.5656 29.7347 126.756 63.3297 126.756Z" fill="white"/>
<path d="M63.3297 63.7906C88.488 63.7906 110.694 65.7044 123.985 68.6302C124.101 67.0371 124.159 65.4238 124.159 63.7906C124.159 29.0112 96.929 0.82489 63.3297 0.82489C29.7304 0.82489 2.50055 29.0112 2.50055 63.7906C2.50055 65.4138 2.55863 67.027 2.67479 68.6302C15.9654 65.7044 38.1714 63.7906 63.3297 63.7906Z" fill="url(#paint0_radial)"/>
<path d="M123.695 71.5861C123.811 70.6042 123.908 69.6222 123.976 68.6302C110.685 65.7044 88.4793 63.7906 63.321 63.7906C38.1627 63.7906 15.9568 65.7044 2.66614 68.6302L59.8168 69.6723L6.63494 73.4899L31.0479 78.54L4.15686 78.4599C4.90222 81.7063 5.89926 84.8526 7.10926 87.8887L41.9282 86.2154L22.3069 89.071L76.0696 90.0229L9.43246 93.0189C11.6008 97.2874 14.2241 101.265 17.2345 104.883L68.1997 101.937L21.1646 109.171C22.5682 110.574 24.0493 111.907 31.1834 113.881L49.2366 115.003L29.2668 115.965C38.9855 122.768 50.6983 126.746 63.321 126.746C75.2952 126.746 86.4659 123.159 95.8748 116.977L53.854 118.7L98.9434 114.822C100.937 113.329 102.854 111.706 104.655 109.973L56.8354 107.438L109.872 104.301C110.211 103.881 110.55 103.45 110.889 103.019L87.0854 98.3997L114.877 97.2073C115.351 96.4257 115.806 95.6341 116.242 94.8325L100.957 92.2274L113.86 91.2754L104.335 90.3235L115.399 88.0991L70.9101 79.1412L121.556 82.057C122.137 80.0831 122.621 78.0791 123.008 76.025L92.5062 72.2274L123.695 71.5861Z" fill="url(#paint1_linear)"/>
<path opacity="0.27" d="M63.3297 63.7906C56.5053 63.7906 49.9132 63.9309 43.6406 64.1914L74.3842 66.3256L30.6306 66.9569L85.9712 68.1693C86.3971 68.1894 86.4068 68.8306 85.9906 68.8707L39.391 73.3597L77.2398 73.5801C77.6658 73.6102 77.6561 74.2515 77.2398 74.2815L50.0294 76.9569C49.6034 76.9869 49.6034 77.6382 50.039 77.6583L119.309 79.3717C119.725 79.3817 119.793 78.7605 119.387 78.6803L84.132 72.1473C83.7351 72.0671 83.7835 71.4759 84.1804 71.4559L101.082 70.9549L90.666 69.8326L118.777 69.4519C119.183 69.4318 119.212 68.8106 118.806 68.7505L94.4993 66.3256L106.038 65.8547C93.9959 64.5621 79.2533 63.7906 63.3297 63.7906Z" fill="#004B5C"/>
<path opacity="0.27" d="M55.7986 79.7825L96.5418 86.4157L48.7322 83.5099L96.5514 90.3135L78.2272 90.8245L107.451 96.4558L49.042 95.4338L74.0745 92.568H69.0118L78.0723 89.552L54.1046 86.6863L59.3318 86.3657L17.3206 84.6122L45.8186 83.029L37.939 80.7044L55.7986 79.7825Z" fill="#004B5C"/>
<path d="M54.8984 82.8586C51.1038 85.6041 47.2415 88.2294 43.3018 90.6842C39.362 93.1291 35.3545 95.4137 31.2792 97.3776C29.2464 98.3596 27.1846 99.2614 25.1324 100.043C23.0802 100.814 21.0281 101.466 19.0534 101.877C18.066 102.087 17.1077 102.227 16.2171 102.277C16.2074 102.277 16.1978 102.277 16.1881 102.277C14.8329 102.358 12.7033 102.899 11.1448 99.9527C9.14104 96.1652 6.02408 87.8686 4.4656 82.8787C4.4172 82.7284 4.2236 82.7384 4.1752 82.8787C3.5944 84.4819 3.46856 85.6943 3.03296 87.4378C2.36504 90.0831 1.53256 92.7584 1.18408 95.8145C1.00984 97.3475 0.932395 98.9708 1.06792 100.744C1.14536 101.646 1.2712 102.568 1.5132 103.55C1.74552 104.522 2.094 105.554 2.60704 106.576C3.58472 108.63 5.40456 110.564 7.40832 111.626C8.40536 112.157 9.4024 112.518 10.3607 112.748C11.3094 112.959 12.2193 113.069 13.0808 113.099C14.7942 113.149 16.3042 112.939 17.7272 112.638C19.1405 112.337 20.457 111.927 21.7154 111.476C24.2225 110.554 26.5166 109.442 28.714 108.229C30.9114 107.017 33.0022 105.724 35.0447 104.362C39.1103 101.636 42.9436 98.6802 46.6414 95.594C50.3391 92.5079 53.8917 89.2915 57.3474 85.9748C63.6879 79.8727 69.6701 73.4599 75.3716 66.7966C75.4974 66.6463 75.2942 66.4359 75.149 66.5661C68.6053 72.3276 61.868 77.7985 54.8984 82.8586Z" fill="#013A44"/>
<path d="M54.8984 82.8586C51.1038 85.6041 47.2415 88.2294 43.3018 90.6842C39.362 93.1291 35.3545 95.4137 31.2792 97.3776C29.2464 98.3596 27.1846 99.2614 25.1324 100.043C23.0802 100.814 21.0281 101.466 19.0534 101.877C18.066 102.087 17.1077 102.227 16.2171 102.277C16.2074 102.277 16.1978 102.277 16.1881 102.277C14.8329 102.358 12.7033 102.899 11.1448 99.9527C9.14104 96.1652 6.02408 87.8686 4.4656 82.8787C4.4172 82.7284 4.2236 82.7384 4.1752 82.8787C3.5944 84.4819 3.46856 85.6943 3.03296 87.4378C2.36504 90.0831 1.53256 92.7584 1.18408 95.8145C1.00984 97.3475 0.932395 98.9708 1.06792 100.744C1.14536 101.646 1.2712 102.568 1.5132 103.55C1.74552 104.522 2.094 105.554 2.60704 106.576C3.58472 108.63 5.40456 110.564 7.40832 111.626C8.40536 112.157 9.4024 112.518 10.3607 112.748C11.3094 112.959 12.2193 113.069 13.0808 113.099C14.7942 113.149 16.3042 112.939 17.7272 112.638C19.1405 112.337 20.457 111.927 21.7154 111.476C24.2225 110.554 26.5166 109.442 28.714 108.229C30.9114 107.017 33.0022 105.724 35.0447 104.362C39.1103 101.636 42.9436 98.6802 46.6414 95.594C50.3391 92.5079 53.8917 89.2915 57.3474 85.9748C63.6879 79.8727 69.6701 73.4599 75.3716 66.7966C75.4974 66.6463 75.2942 66.4359 75.149 66.5661C68.6053 72.3276 61.868 77.7985 54.8984 82.8586Z" stroke="white" stroke-width="1.2154" stroke-miterlimit="10"/>
<path d="M93.2505 64.7525C88.5073 63.0491 78.4789 59.6724 74.8392 60.2134C69.9992 60.9249 67.9277 61.4058 63.775 60.6944C59.6319 59.983 57.5507 59.502 54.5596 59.0211C51.5685 58.5401 52.0234 56.8768 47.8804 56.8768C43.7374 56.8768 38.665 57.1173 38.665 57.1173L30.137 58.3096C30.137 58.3096 28.985 56.6363 27.1458 56.4058C25.3066 56.1654 24.1547 54.2615 21.6185 54.0211C19.0824 53.7806 17.6982 53.7806 16.5462 54.2616C15.3943 54.7425 13.3228 54.973 11.9385 54.973C10.5543 54.973 9.86703 54.2616 8.71511 54.2616C7.56319 54.2616 7.33087 53.7806 5.72399 53.7806C5.19159 53.7806 4.26231 53.8307 3.24591 53.9008C2.75223 57.1273 2.50055 60.4339 2.50055 63.8006C2.50055 65.4238 2.55863 67.0371 2.67479 68.6403C15.9654 65.7144 38.1714 63.8006 63.3297 63.8006C73.9874 63.7906 84.1126 64.1313 93.2505 64.7525Z" fill="#013A44"/>
<path d="M45.3249 40.6043C45.3249 40.6043 45.3152 40.6043 45.3249 40.6043C45.3249 40.6143 45.0538 37.9891 44.0374 35.1334C45.0345 33.1194 45.7218 30.8448 45.8089 30.5442C45.4701 31.436 44.2988 33.3498 43.7083 34.2817C43.0694 32.7286 42.2079 31.1755 41.0173 30.0032C41.1334 29.1014 41.3464 27.2577 41.2109 26.2557C41.2109 26.2557 40.8914 28.1194 40.5042 29.5422C40.059 29.1715 39.5846 28.8408 39.0522 28.6104C35.5965 27.0673 33.767 28.0593 33.767 28.0593C33.767 28.0593 43.0501 43.971 38.0842 60.7846C38.0842 60.7846 35.3254 56.8968 28.3752 63.7906C28.1526 63.5601 27.8912 63.2796 27.6105 62.979C28.4236 62.1674 31.4728 58.6704 33.1087 52.4179C33.2055 52.0371 33.3023 51.6464 33.3894 51.2456C33.8541 49.1814 34.1445 46.8367 34.1638 44.2215C34.1735 43.971 34.1735 43.7105 34.1638 43.45C34.1445 41.7666 34.009 39.9831 33.7282 38.0793C33.6992 37.8588 33.6605 37.6384 33.6314 37.4179C33.3991 35.945 33.07 34.4119 32.6538 32.8087C32.6247 32.6785 32.586 32.5583 32.5473 32.428C32.2375 31.2757 31.8697 30.0833 31.4534 28.8609C31.4534 28.8609 25.7906 27.5883 21.8509 34.7827C20.9603 33.4099 20.0117 30.6945 19.9342 30.5042C20.1472 32.2977 21.1926 34.6424 21.5314 35.3939C21.0281 36.3959 20.5538 37.5582 20.1375 38.8909C19.3922 37.3779 18.792 35.3037 18.792 35.3037C18.8404 36.9169 19.8762 39.7727 19.8762 39.7727C19.5858 40.8047 19.3147 41.9269 19.0921 43.1594C19.0921 43.1594 19.0824 43.1494 19.063 43.1193C18.6662 42.4179 13.5745 33.1895 20.6506 27.8989C22.5962 26.446 26.4489 25.6044 30.7081 27.2977C29.4884 26.0452 26.6715 23.7507 22.8866 23.8408C22.4026 22.3378 22.9254 20.4541 22.9641 20.2938C22.2768 21.4661 22.2768 23.1695 22.3639 23.8709C21.6282 23.931 20.8538 24.0813 20.0601 24.3519C19.5374 24.5322 19.0437 24.7226 18.579 24.943C17.7369 22.438 18.1628 19.4421 18.1628 19.4421C17.3884 21.6765 17.8724 24.2517 18.066 25.1835C16.7786 25.8448 15.675 26.6665 14.7361 27.5482C13.9133 25.0432 13.6035 21.6565 13.6035 21.6565C13.2357 24.1114 13.8455 26.927 14.1553 28.1094C11.1642 31.1955 10.0122 34.7125 10.0122 34.7125C10.0122 34.7125 10.0122 34.7125 10.0122 34.7025C10.0122 34.7025 10.0122 34.6925 10.0122 34.6825V34.6725C9.77025 33.9109 6.29512 22.5082 15.8396 18.931C17.1464 18.4401 25.1227 16.6565 31.5696 25.7747C31.5793 25.7847 31.589 25.7947 31.589 25.8048V25.8148C31.5986 25.7146 31.6083 25.6044 31.618 25.4942C31.618 25.4942 31.618 25.4841 31.618 25.4741C31.8213 23.2396 32.8667 20.3338 35.6642 19.2016C37.8422 18.3098 43.2437 18.2296 45.5959 24.1314C45.5959 24.1314 42.8371 22.398 39.7395 22.2877C39.5266 21.7968 38.7909 20.2036 37.9681 19.5823C38.0262 19.6825 38.8199 20.9851 39.2458 22.2877C38.3262 22.3078 37.3873 22.4781 36.487 22.8889C36.4774 22.8889 36.4677 22.899 36.458 22.899C35.6642 21.9571 34.8802 21.2958 34.7543 21.1956C35.248 21.6465 35.8191 22.5082 36.1482 23.0593C33.8734 24.2316 33.3894 25.8248 33.0797 26.7166C33.0797 26.7166 33.0797 26.7166 33.0894 26.7166C35.3351 25.0132 40.6978 23.5102 44.5795 26.9771C50.281 32.0773 45.5185 40.2736 45.3249 40.6043Z" fill="#013A44"/>
<path d="M57.725 50.454C57.7153 50.454 57.7153 50.454 57.725 50.454C57.725 50.454 58.238 48.7205 58.3251 46.6163C59.4867 45.6143 60.5128 44.3618 60.6483 44.1915C60.203 44.6624 58.9543 45.5542 58.3445 45.985C58.3445 44.8227 58.1993 43.5903 57.7443 42.5181C58.0541 41.977 58.6639 40.8648 58.8382 40.1835C58.8382 40.1835 58.1509 41.2857 57.5314 42.0772C57.3474 41.7165 57.1248 41.3758 56.8538 41.0853C55.0533 39.1414 53.6303 39.2616 53.6303 39.2616C53.6303 39.2616 55.4018 51.967 47.8707 61.2756C47.8707 61.2756 47.1253 58.0291 40.9108 60.484C40.8333 60.2736 40.7365 60.0231 40.6397 59.7525C41.3657 59.4619 44.2213 58.0892 46.8833 54.5722C47.0479 54.3618 47.2028 54.1413 47.3673 53.9109C48.1998 52.7285 48.9936 51.3157 49.6809 49.6624C49.7486 49.5021 49.8164 49.3417 49.8842 49.1714C50.3101 48.0993 50.6876 46.9169 51.007 45.6343C51.0458 45.484 51.0845 45.3337 51.1135 45.1834C51.3458 44.1814 51.5394 43.1193 51.6943 41.977C51.704 41.8869 51.7234 41.7967 51.7234 41.7065C51.8298 40.8849 51.9073 40.0231 51.9557 39.1314C51.9557 39.1314 48.6838 36.7466 44.3085 40.2235C44.1052 39.1013 44.202 37.1173 44.202 36.967C43.8729 38.1694 43.9213 39.953 43.9503 40.5242C43.3695 41.0252 42.7693 41.6263 42.1498 42.3578C42.0724 41.1855 42.2273 39.7025 42.2273 39.7025C41.8401 40.7446 41.7529 42.8488 41.7529 42.8488C41.298 43.4199 40.8333 44.0712 40.3784 44.7827C40.3784 44.7827 40.3784 44.7726 40.3784 44.7526C40.3009 44.2015 39.4685 36.9069 45.3442 35.5142C46.9608 35.1334 49.6325 35.6644 51.8976 37.929C51.4523 36.7967 50.252 34.5422 47.8223 33.5502C47.8997 32.458 48.7226 31.406 48.8 31.3158C48.0546 31.8669 47.619 32.959 47.4932 33.42C47.0092 33.2496 46.4768 33.1294 45.9057 33.0793C45.5282 33.0492 45.1603 33.0292 44.8118 33.0392C44.928 31.2156 45.9734 29.422 45.9734 29.422C44.899 30.6244 44.5408 32.3979 44.4246 33.0492C43.4373 33.1093 42.5177 33.3298 41.6852 33.6304C41.811 31.8067 42.4983 29.5723 42.4983 29.5723C41.6271 31.0352 41.2883 32.9891 41.1721 33.8308C38.4714 34.953 36.8161 36.8769 36.8161 36.8769C36.8161 36.8769 36.8161 36.8769 36.8161 36.8668V36.8568V36.8468C36.8549 36.2957 37.6099 28.0693 44.6085 28.4601C45.5669 28.5102 51.1038 29.6024 52.8366 37.1875C52.8366 37.1975 52.8462 37.2075 52.8462 37.2075V37.2175C52.8753 37.1574 52.914 37.0873 52.943 37.0272C52.943 37.0272 52.943 37.0172 52.9527 37.0172C53.6594 35.6544 55.0823 34.1013 57.1635 34.1514C58.7801 34.1915 62.2358 35.6444 62.1971 40.0532C62.1971 40.0532 60.8903 38.1895 58.9543 37.2476C58.9446 36.8769 58.8962 35.6544 58.5381 35.0332C58.5478 35.1133 58.7123 36.1654 58.6446 37.1073C58.0541 36.8668 57.4152 36.7165 56.7376 36.7266C56.7279 36.7266 56.7279 36.7266 56.7182 36.7266C56.4569 35.9049 56.1278 35.2636 56.0794 35.1634C56.273 35.5843 56.4182 36.2957 56.4859 36.7366C54.7338 36.8468 54.0175 37.7286 53.5819 38.2095C53.5819 38.2095 53.5819 38.2095 53.5916 38.2095C55.4598 37.7586 59.2641 38.2897 60.8322 41.5762C63.0877 46.4159 57.9282 50.3037 57.725 50.454Z" fill="#013A44"/>
<path d="M118.777 20.2637L118.728 20.2136C116.299 17.8188 111.439 22.0673 111.439 22.0673L102.621 29.2516L93.3377 27.5482C94.6735 25.5442 95.0801 23.5503 94.1895 22.6184C93.0376 21.426 90.1433 22.4781 87.733 24.9631C87.307 25.404 86.9295 25.8549 86.6004 26.3058L79.4759 25.0032L74.7327 29.1915L94.083 38.3798L81.683 53.8908L73.9583 52.3878L72.003 54.4118L85.7292 68.6202L87.6846 66.5962L86.2326 58.6002L101.217 45.7646L110.094 65.7946L114.14 60.8848L112.882 53.5101C113.317 53.1694 113.753 52.7786 114.179 52.3377C116.589 49.8427 117.605 46.8568 116.444 45.6544C115.553 44.7325 113.627 45.1434 111.681 46.5361L110.036 36.927L116.976 27.7987C116.986 27.8088 121.09 22.7787 118.777 20.2637Z" fill="#013A44"/>
<path d="M9.34433 32.438L10.0413 34.7226H10.0026C10.4866 33.5001 11.0577 32.3077 11.7159 31.1655C12.3742 30.0332 13.1389 28.941 14.1262 28.0693L14.1069 28.1394C13.5648 26.0352 13.2938 23.8308 13.5358 21.6465L13.6229 20.895L13.7003 21.6565C13.8068 22.6485 13.9327 23.6404 14.1069 24.6224C14.194 25.1234 14.3102 25.5843 14.4457 26.0753C14.5715 26.5563 14.6586 27.0673 14.8426 27.4982L14.6877 27.4681C15.7234 26.5663 16.7882 25.6845 18.037 25.0733L17.9692 25.2036C17.7659 24.2416 17.6498 23.2697 17.6304 22.2877C17.6207 21.3058 17.7175 20.3138 18.066 19.3819L18.3274 18.7006L18.279 19.432C18.2112 20.3539 18.1144 21.2757 18.2015 22.1875C18.2596 23.0994 18.3951 24.0212 18.6758 24.8829L18.55 24.8328C19.76 24.2517 21.0474 23.8809 22.3736 23.7607L22.2962 23.8509C22.2381 23.2296 22.2478 22.6084 22.3349 21.9872C22.422 21.3759 22.5866 20.7547 22.9157 20.2236L23.148 19.8429L23.0415 20.2837C22.7705 21.426 22.6059 22.6585 22.9544 23.7907L22.8866 23.7507C23.6223 23.7306 24.358 23.8308 25.0646 24.0012C25.7713 24.1715 26.4779 24.402 27.1362 24.7126C27.7944 25.0232 28.443 25.3839 29.0334 25.8248C29.6336 26.2456 30.1854 26.7466 30.7081 27.2677C30.1757 26.7567 29.6239 26.2657 29.0141 25.8549C28.4236 25.424 27.7654 25.0833 27.1071 24.7827C25.7713 24.2016 24.329 23.8509 22.8866 23.8809H22.8382L22.8189 23.8408C22.6253 23.2597 22.5962 22.6384 22.6156 22.0372C22.6446 21.436 22.7414 20.8348 22.8866 20.2437L23.0125 20.3038C22.4026 21.3358 22.3446 22.6384 22.4414 23.8308L22.451 23.921L22.3639 23.931C21.0668 24.0513 19.7794 24.422 18.6081 25.0032L18.5113 25.0533L18.4726 24.9531C18.1725 24.0613 18.037 23.1294 17.9692 22.2076C17.9402 21.7366 17.9208 21.2757 17.9402 20.8048L18.0273 19.412L18.2402 19.4621C17.9111 20.3439 17.824 21.3158 17.8337 22.2777C17.853 23.2396 17.9595 24.2016 18.1531 25.1434L18.1725 25.2336L18.0854 25.2737C16.885 25.8549 15.8009 26.7266 14.7748 27.6184L14.6683 27.7086L14.6199 27.5883C14.4263 27.0973 14.3392 26.6064 14.223 26.1254C14.0972 25.6545 13.9714 25.1434 13.8939 24.6525C13.7197 23.6605 13.6035 22.6685 13.497 21.6665H13.6616C13.4099 23.8108 13.6713 26.0052 14.194 28.0993L14.2037 28.1394L14.1747 28.1695C13.2067 29.0112 12.4516 30.1033 11.7643 31.2156C11.0964 32.3378 10.5059 33.5202 10.0026 34.7326L9.98321 34.7827L9.96385 34.7326L9.34433 32.438Z" fill="white"/>
<path d="M17.3497 18.5903C18.7146 18.2497 20.1472 18.2497 21.5411 18.4801C22.935 18.7106 24.2902 19.1815 25.5583 19.8428C26.7877 20.5643 27.9686 21.3859 28.956 22.428C29.4884 22.909 29.9046 23.5102 30.379 24.0412C30.8049 24.6224 31.1824 25.2336 31.589 25.8248C31.1437 25.2637 30.7178 24.6925 30.2531 24.1615C29.7594 23.6605 29.3238 23.0893 28.7818 22.6384C27.7654 21.6565 26.6134 20.8449 25.4034 20.1735C24.1838 19.5022 22.8576 19.0413 21.5024 18.7607C20.1472 18.4902 18.7339 18.3899 17.3497 18.5903Z" fill="white"/>
<path d="M114.15 60.8848C113.579 58.4499 113.056 56.0151 112.543 53.5702L112.504 53.3698L112.688 53.2195C113.569 52.468 114.343 51.5662 114.972 50.5742C115.592 49.5922 116.105 48.49 116.25 47.448C116.395 46.3658 115.921 45.8147 115.002 45.9149C114.092 46.0151 113.027 46.6163 112.185 47.2375L111.12 48.0191L110.868 46.6864C110.258 43.5001 109.619 40.3137 109.039 37.1173L108.952 36.6264L109.29 36.2256C111.362 33.7606 113.327 31.1154 115.06 28.41C115.921 27.0472 116.705 25.6444 117.296 24.2216C117.576 23.5102 117.799 22.7888 117.886 22.1274C117.983 21.4461 117.857 20.9651 117.644 20.6946C117.518 20.5843 117.451 20.4841 117.247 20.4541C117.073 20.394 116.792 20.414 116.502 20.4441C115.902 20.5342 115.205 20.8148 114.547 21.1354C113.201 21.8068 111.894 22.6986 110.626 23.6605C108.1 25.5943 105.641 27.7487 103.356 30.0032L102.96 30.3939L102.456 30.2937C99.3683 29.7025 96.2901 29.0312 93.2119 28.3999L91.9341 28.1394L92.6698 27.0472C93.2603 26.1655 93.8411 25.0533 93.9379 24.1114C93.9766 23.6404 93.8991 23.2998 93.6184 23.0693C93.3183 22.7988 92.9215 22.7086 92.4375 22.7587C91.4695 22.8789 90.4143 23.4701 89.4851 24.1414C89.0107 24.4721 88.5558 24.8529 88.1202 25.2537C87.6942 25.6344 87.2296 26.0953 86.9392 26.4861L86.765 26.7166L86.5617 26.6665C84.1998 26.1354 81.8475 25.5843 79.4953 25.0032C81.8959 25.2837 84.2869 25.6144 86.6779 25.9551L86.31 26.1454C86.6972 25.5042 87.0844 25.0933 87.52 24.6224C87.9459 24.1715 88.3912 23.7306 88.8655 23.3298C89.8239 22.5282 90.8596 21.7467 92.2535 21.4661C92.9311 21.3258 93.812 21.426 94.4606 21.9471C94.6251 22.0673 94.7703 22.2477 94.9155 22.408C95.0317 22.5883 95.1479 22.7888 95.235 22.9892C95.3802 23.4 95.4383 23.8208 95.4189 24.2016C95.3221 25.7346 94.7316 26.8969 94.0347 28.0593L93.4926 26.7066C96.5999 27.2176 99.7071 27.6785 102.805 28.2196L101.904 28.5102C104.237 26.1054 106.619 23.8208 109.271 21.7767C110.597 20.7547 111.981 19.7827 113.54 18.9912C114.324 18.6004 115.147 18.2397 116.144 18.0693C116.657 18.0092 117.189 17.9491 117.799 18.1094C118.399 18.2196 119.019 18.6405 119.435 19.1415C119.822 19.6425 120.093 20.2637 120.18 20.8348C120.277 21.416 120.258 21.9571 120.19 22.4581C120.054 23.4601 119.754 24.3318 119.416 25.1635C118.728 26.8068 117.867 28.2897 116.947 29.7126C115.098 32.5582 113.017 35.1434 110.8 37.6584L111.052 36.7566C111.575 39.963 112.02 43.1794 112.514 46.3959L111.197 45.8448C112.311 45.1033 113.433 44.4921 114.914 44.3919C115.64 44.3418 116.56 44.6223 117.083 45.3538C117.625 46.1053 117.615 46.987 117.489 47.6584C117.209 49.0512 116.531 50.1634 115.776 51.1754C115.011 52.1874 114.111 53.0792 113.095 53.8007L113.23 53.4399C113.559 55.9149 113.869 58.3998 114.15 60.8848Z" fill="white"/>
<path d="M117.296 34.7225C120.839 40.8949 123.23 47.8087 124.42 54.973C124.72 56.7666 124.924 58.5702 125.069 60.3838C125.224 62.1974 125.272 64.021 125.204 65.8447L125.136 68.5801C125.107 69.492 125.117 70.4138 124.962 71.3156L124.265 76.7565C122.949 83.9609 120.345 90.9047 116.744 97.2374C113.114 103.56 108.409 109.211 102.94 113.931C97.413 118.58 91.0919 122.197 84.3934 124.632C77.6754 127.007 70.58 128.279 63.5039 128.169C56.4278 128.079 49.4002 126.646 42.8468 124.041C36.3128 121.396 30.2338 117.598 25.1034 112.768C36.3128 121.205 49.9616 125.664 63.5039 125.313C77.0269 124.913 90.3078 119.953 100.714 111.105C111.12 102.267 118.515 89.8225 121.584 76.1753L122.445 70.995C122.629 70.1333 122.649 69.2515 122.716 68.3797L122.91 65.7545C123.23 62.2475 123.065 58.7104 122.726 55.2034C122.029 48.1894 120.151 41.2656 117.296 34.7225Z" fill="url(#paint2_linear)"/>
<path d="M305.272 81.5059C294.924 80.9047 290.945 76.7064 290.897 65.9749C290.839 50.6544 290.839 35.3338 290.906 20.0132C290.945 9.38198 294.798 5.26376 304.942 4.62248C305.581 4.5824 306.453 4.52227 307.101 4.36195C307.604 4.23169 307.953 3.76076 307.953 3.2297V3.21967C307.953 2.82889 307.653 2.50825 307.275 2.49823C306.278 2.46817 305.252 2.46817 304.265 2.46817C296.405 2.44813 288.545 2.59843 280.694 2.37799C277.887 2.29783 276.58 3.34993 275.409 5.86495C266.958 24.0512 258.372 42.1674 249.805 60.3036C249.224 61.5361 248.527 62.7084 247.618 64.4118C238.693 45.6844 230.068 27.5683 221.123 8.81083C218.49 14.8829 216.012 20.1134 214.018 25.5342C213.379 27.2677 213.418 29.8128 214.183 31.4661C221.84 47.949 239.051 83.5701 239.825 84.5821C240.687 83.53 262.099 38.3899 271.943 17.2878C272.65 15.7747 274.586 12.4681 274.876 11.9471C274.876 12.6786 274.925 14.4421 274.925 15.1735C274.925 32.2576 274.964 49.3417 274.915 66.4258C274.876 76.8567 270.743 81.1152 260.608 81.516C259.514 81.556 257.598 81.7665 257.336 82.0771C256.978 82.4979 257.162 83.2995 257.569 83.3496C274.363 83.3496 291.158 83.3496 307.953 83.3496C308.34 83.2294 308.398 82.4077 308.118 82.1272C307.546 81.556 306.23 81.556 305.272 81.5059Z" fill="white"/>
<path d="M217.774 2.94915H196.352C196.73 3.27981 196.952 3.42008 197.175 3.56036C198.588 4.50224 199.614 4.95314 200.844 5.41406C202.451 6.02528 204.019 6.79683 205.384 7.87899C207.204 9.33189 208.481 11.3359 208.82 13.7106C209.217 16.5363 208.423 19.422 207.378 21.9972C201.531 36.4761 195.21 50.7546 188.734 65.9549H188.724C187.844 64.1313 187.36 63.2094 186.943 62.2575C180.642 47.969 174.35 33.6705 168.067 19.3719C163.208 8.31987 164.97 5.25375 176.431 4.57239C176.44 4.57239 176.45 4.57239 176.47 4.57239C176.479 4.57239 176.421 2.99924 176.421 2.90906C176.353 2.89904 176.286 2.89905 176.218 2.89905C175.821 2.89905 175.414 2.89905 175.018 2.89905C174.301 2.89905 173.595 2.89905 172.878 2.89905C171.91 2.89905 170.942 2.89905 169.965 2.89905C168.793 2.89905 167.622 2.89905 166.451 2.89905C165.134 2.89905 163.808 2.89905 162.492 2.89905C161.078 2.89905 159.665 2.89905 158.252 2.89905C156.8 2.89905 155.348 2.89905 153.896 2.89905C152.463 2.89905 151.03 2.89905 149.598 2.89905C148.233 2.89905 146.868 2.89905 145.503 2.89905C144.264 2.89905 143.025 2.89905 141.786 2.89905C140.731 2.89905 139.666 2.89905 138.611 2.89905C137.788 2.89905 136.965 2.89905 136.143 2.89905C135.61 2.89905 135.078 2.89905 134.536 2.89905C134.342 2.89905 134.158 2.89905 133.965 2.89905C133.742 2.89905 133.548 3.06938 133.529 3.30986L133.5 3.62049C133.471 3.88101 133.655 4.10145 133.907 4.12149C135.029 4.22169 135.552 4.19163 136.414 4.26177C140.528 4.60245 143.78 6.70664 146.113 10.0132C147.875 12.5082 149.424 15.2236 150.682 18.0292C160.226 39.4219 180.632 83.52 181.377 84.552C182.219 83.4799 205.597 31.6665 216.429 6.42608C216.922 5.26376 217.348 4.05135 217.774 2.94915Z" fill="white"/>
<path d="M366.74 82.067C366.168 81.5059 364.852 81.5059 363.894 81.4558C353.546 80.8647 349.567 76.6562 349.519 65.9248C349.461 50.6043 349.461 35.2837 349.529 19.9631C349.567 9.33189 353.42 5.21367 363.565 4.57239C364.203 4.53231 365.075 4.47218 365.723 4.31186C366.227 4.1816 366.575 3.71067 366.575 3.17961V3.16958C366.575 2.7788 366.275 2.45818 365.897 2.44816C364.9 2.4181 363.874 2.41808 362.887 2.41808C355.859 2.39804 348.832 2.50828 341.804 2.368C333.266 2.368 324.728 2.368 316.191 2.368C315.784 2.4181 315.6 3.21968 315.958 3.64052C316.22 3.95114 318.136 4.16158 319.23 4.20166C328.097 4.55236 332.356 7.86896 333.315 15.6645C333.363 16.0553 333.382 16.4461 333.392 16.8369C333.431 18.6405 333.557 24.0012 333.557 24.0012C333.557 30.1434 333.566 36.2957 333.566 42.438H298.389C296.995 42.438 295.872 43.6003 295.872 45.0432H333.566C333.566 52.1473 333.566 59.2615 333.537 66.3657C333.537 67.4479 333.479 68.4499 333.382 69.4018C332.569 77.6182 328.32 81.0951 319.23 81.4558C318.136 81.4959 316.22 81.7063 315.958 82.017C315.6 82.4378 315.784 83.2394 316.191 83.2895C324.728 83.2895 333.266 83.2895 341.804 83.2895C350.061 83.2895 358.318 83.2895 366.575 83.2895C366.972 83.1692 367.03 82.3476 366.74 82.067Z" fill="white"/>
<path d="M384.28 129.622H136.23C134.72 129.622 133.5 128.359 133.5 126.796V102.267C133.5 100.704 134.72 99.4417 136.23 99.4417H384.28C385.79 99.4417 387.01 100.704 387.01 102.267V126.796C387.01 128.359 385.79 129.622 384.28 129.622Z" fill="white"/>
<path d="M147.439 119.311L143.538 109.362L142.628 109.101L142.686 108.4H146.384L146.423 109.101L145.329 109.362L148.407 117.428H148.049L150.924 109.362L149.675 109.101L149.733 108.4H153.025L153.063 109.101L152.173 109.362L148.204 119.311H147.439Z" fill="#004B5C"/>
<path d="M152.405 119.261L152.366 118.56L153.238 118.299L156.916 108.72L157.952 108.069L161.853 118.299L162.743 118.56L162.685 119.261H159.075L159.036 118.56L160.13 118.299L159.075 115.564L158.881 114.993L156.935 109.963L157.342 109.722L155.483 114.993L155.29 115.544L154.341 118.299L155.435 118.56L155.396 119.261H152.405ZM154.902 115.834V114.853C155.125 114.863 155.435 114.873 155.832 114.893C156.229 114.913 156.703 114.913 157.284 114.913C157.845 114.913 158.32 114.903 158.726 114.893C159.123 114.883 159.433 114.873 159.646 114.853V115.834C159.239 115.824 158.842 115.814 158.436 115.804C158.029 115.794 157.652 115.794 157.284 115.794C156.926 115.794 156.558 115.794 156.171 115.804C155.783 115.814 155.357 115.824 154.902 115.834Z" fill="#004B5C"/>
<path d="M169.239 119.421C168.203 119.421 167.254 119.211 166.402 118.8C165.55 118.389 164.873 117.768 164.36 116.946C163.847 116.124 163.595 115.112 163.595 113.9C163.595 113.118 163.731 112.397 163.992 111.706C164.253 111.024 164.641 110.413 165.144 109.892C165.647 109.371 166.267 108.96 166.993 108.66C167.719 108.359 168.551 108.219 169.481 108.219C169.965 108.219 170.487 108.269 171.039 108.369C171.591 108.469 172.075 108.609 172.501 108.79L172.627 111.325L171.823 111.395L171.291 109.642C171.068 109.481 170.768 109.361 170.4 109.281C170.032 109.201 169.674 109.161 169.326 109.161C168.435 109.161 167.699 109.361 167.138 109.762C166.577 110.163 166.16 110.694 165.889 111.365C165.618 112.036 165.483 112.768 165.483 113.569C165.483 114.621 165.657 115.503 166.005 116.235C166.354 116.966 166.838 117.507 167.438 117.878C168.038 118.249 168.706 118.429 169.432 118.429C169.8 118.429 170.148 118.389 170.458 118.299C170.768 118.209 171.078 118.078 171.358 117.908L172.143 116.165L172.965 116.255L172.462 118.589C172.046 118.8 171.562 118.99 171.01 119.151C170.449 119.341 169.858 119.421 169.239 119.421Z" fill="#004B5C"/>
<path d="M173.333 119.261L173.294 118.56L174.166 118.299L177.844 108.72L178.88 108.069L182.781 118.299L183.671 118.56L183.613 119.261H180.003L179.964 118.56L181.058 118.299L180.003 115.564L179.809 114.993L177.863 109.963L178.27 109.722L176.411 114.993L176.218 115.544L175.269 118.299L176.363 118.56L176.324 119.261H173.333ZM175.84 115.834V114.853C176.063 114.863 176.373 114.873 176.77 114.893C177.166 114.913 177.641 114.913 178.222 114.913C178.783 114.913 179.257 114.903 179.664 114.893C180.061 114.883 180.371 114.873 180.584 114.853V115.834C180.177 115.824 179.78 115.814 179.374 115.804C178.967 115.794 178.589 115.794 178.222 115.794C177.863 115.794 177.496 115.794 177.108 115.804C176.712 115.814 176.286 115.824 175.84 115.834Z" fill="#004B5C"/>
<path d="M192.316 108.328L192.713 111.324L191.928 111.415L191.173 109.32C191.077 109.3 190.97 109.28 190.844 109.27C190.718 109.26 190.612 109.26 190.515 109.26H189.876C189.76 109.26 189.596 109.26 189.392 109.26C189.189 109.26 189.005 109.27 188.841 109.28C188.841 109.381 188.841 109.611 188.831 109.972C188.821 110.332 188.821 110.753 188.821 111.234C188.821 111.715 188.821 112.176 188.821 112.617V115.112C188.821 115.894 188.831 116.565 188.841 117.136C188.85 117.707 188.86 118.088 188.86 118.278L190.38 118.499L190.322 119.24H185.762L185.724 118.499L187.224 118.278C187.224 118.098 187.234 117.717 187.243 117.136C187.253 116.565 187.263 115.884 187.263 115.112V112.617C187.263 112.176 187.263 111.715 187.263 111.234C187.263 110.753 187.263 110.332 187.263 109.972C187.263 109.611 187.253 109.381 187.243 109.28C187.088 109.27 186.914 109.26 186.711 109.26C186.508 109.26 186.343 109.26 186.227 109.26H185.53C185.433 109.26 185.327 109.26 185.22 109.27C185.104 109.28 184.998 109.29 184.891 109.32L184.155 111.425L183.352 111.314L183.749 108.318C183.884 108.329 184.02 108.339 184.165 108.349C184.31 108.359 184.465 108.369 184.61 108.379C184.756 108.389 184.901 108.399 185.046 108.399C185.191 108.399 185.327 108.399 185.472 108.399H190.583C190.718 108.399 190.854 108.399 190.999 108.399C191.144 108.399 191.29 108.389 191.435 108.379C191.58 108.369 191.725 108.359 191.87 108.349C192.025 108.349 192.17 108.339 192.316 108.328Z" fill="#004B5C"/>
<path d="M193.884 119.261L193.845 118.56L194.939 118.299C194.958 118.239 194.978 118.099 194.987 117.879C194.997 117.658 194.997 117.357 195.007 116.967C195.016 116.586 195.016 116.125 195.016 115.584V112.107C195.016 111.556 195.016 111.075 195.007 110.694C194.997 110.313 194.997 109.993 194.987 109.772C194.978 109.552 194.968 109.412 194.939 109.372L193.845 109.111L193.884 108.41H197.688L197.727 109.111L196.633 109.372C196.614 109.412 196.585 109.532 196.575 109.732C196.565 109.933 196.546 110.233 196.536 110.614C196.526 110.995 196.526 111.496 196.526 112.117V115.594C196.526 116.185 196.526 116.676 196.536 117.057C196.546 117.438 196.556 117.728 196.575 117.939C196.594 118.149 196.614 118.269 196.633 118.319L197.727 118.58L197.688 119.281H193.884V119.261Z" fill="#007474"/>
<path d="M204.793 119.421C203.757 119.421 202.838 119.191 202.034 118.72C201.231 118.249 200.602 117.597 200.147 116.756C199.692 115.914 199.469 114.952 199.469 113.87C199.469 112.788 199.702 111.816 200.156 110.964C200.611 110.112 201.25 109.441 202.073 108.96C202.886 108.469 203.806 108.229 204.832 108.229C205.829 108.229 206.71 108.459 207.475 108.93C208.239 109.401 208.839 110.042 209.275 110.874C209.711 111.706 209.924 112.658 209.924 113.74C209.924 114.561 209.788 115.323 209.517 116.014C209.246 116.706 208.868 117.307 208.394 117.818C207.92 118.329 207.368 118.72 206.758 119C206.139 119.291 205.48 119.421 204.793 119.421ZM204.948 118.429C205.606 118.429 206.168 118.259 206.642 117.908C207.116 117.567 207.475 117.076 207.736 116.435C207.997 115.794 208.123 115.052 208.123 114.191C208.123 113.189 207.978 112.317 207.678 111.565C207.378 110.814 206.971 110.223 206.458 109.802C205.935 109.381 205.326 109.161 204.629 109.161C203.612 109.161 202.818 109.551 202.228 110.333C201.638 111.114 201.347 112.177 201.347 113.529C201.347 114.491 201.502 115.343 201.812 116.074C202.122 116.806 202.547 117.387 203.099 117.808C203.622 118.219 204.251 118.429 204.948 118.429Z" fill="#004B5C"/>
<path d="M219.836 116.616V112.468C219.836 111.736 219.836 111.155 219.826 110.714C219.817 110.273 219.807 109.953 219.788 109.732C219.768 109.522 219.758 109.392 219.739 109.352L218.519 109.091L218.578 108.39H221.975L222.033 109.091L220.93 109.352C220.93 109.392 220.92 109.512 220.901 109.732C220.881 109.953 220.872 110.273 220.852 110.724C220.843 111.165 220.833 111.746 220.833 112.468V116.867C220.833 117.257 220.833 117.658 220.833 118.069C220.833 118.48 220.843 118.901 220.852 119.331H220.049L213.476 110.173H213.873V115.133C213.873 115.875 213.883 116.466 213.892 116.907C213.902 117.347 213.921 117.678 213.941 117.899C213.96 118.119 213.97 118.249 213.989 118.299L215.199 118.56L215.151 119.261H211.714L211.666 118.56L212.76 118.299C212.779 118.249 212.799 118.119 212.818 117.909C212.828 117.698 212.837 117.368 212.857 116.917C212.866 116.466 212.876 115.875 212.876 115.133V111.967C212.876 111.416 212.866 110.955 212.857 110.594C212.847 110.233 212.828 109.963 212.818 109.762C212.808 109.562 212.789 109.432 212.76 109.352L211.666 109.091L211.714 108.39H214.163L220.165 116.606H219.836V116.616Z" fill="#004B5C"/>
<path d="M227.299 108.4H230.387L234.143 117.257H233.824L237.502 108.4H240.396L240.454 109.101L239.351 109.342C239.341 109.512 239.331 109.843 239.341 110.313C239.351 110.784 239.36 111.295 239.37 111.836L239.438 115.223C239.448 115.844 239.457 116.355 239.477 116.766C239.486 117.177 239.496 117.508 239.515 117.748C239.525 117.989 239.535 118.179 239.554 118.309L240.648 118.55L240.609 119.251H236.824L236.766 118.55L237.86 118.309C237.87 118.159 237.879 117.989 237.879 117.788C237.879 117.588 237.879 117.317 237.879 116.957C237.879 116.596 237.87 116.115 237.86 115.494L237.821 108.931H238.286L233.959 119.311H233.33L228.896 108.911H229.361L229.38 115.203C229.38 116.225 229.38 116.967 229.39 117.438C229.4 117.899 229.4 118.189 229.419 118.299L230.639 118.56L230.581 119.261H227.077L227.018 118.56L228.238 118.299C228.248 118.209 228.258 118.049 228.267 117.818C228.277 117.588 228.287 117.277 228.296 116.887C228.306 116.496 228.316 116.035 228.316 115.504L228.364 111.836C228.374 111.295 228.383 110.794 228.374 110.344C228.364 109.893 228.364 109.562 228.364 109.352L227.27 109.091L227.299 108.4Z" fill="#004B5C"/>
<path d="M241.538 119.261L241.5 118.56L242.371 118.299L246.049 108.72L247.085 108.069L250.986 118.299L251.877 118.56L251.819 119.261H248.208L248.169 118.56L249.263 118.299L248.208 115.564L248.014 114.993L246.069 109.963L246.475 109.722L244.617 114.993L244.423 115.544L243.474 118.299L244.568 118.56L244.53 119.261H241.538ZM244.046 115.834V114.853C244.268 114.863 244.578 114.873 244.975 114.893C245.372 114.913 245.846 114.913 246.427 114.913C246.988 114.913 247.463 114.903 247.869 114.893C248.266 114.883 248.576 114.873 248.789 114.853V115.834C248.382 115.824 247.985 115.814 247.579 115.804C247.172 115.794 246.795 115.794 246.427 115.794C246.069 115.794 245.701 115.794 245.314 115.804C244.917 115.814 244.491 115.824 244.046 115.834Z" fill="#004B5C"/>
<path d="M260.918 116.616V112.468C260.918 111.736 260.918 111.155 260.908 110.714C260.898 110.273 260.889 109.953 260.869 109.732C260.85 109.522 260.84 109.392 260.821 109.352L259.601 109.091L259.659 108.39H263.057L263.115 109.091L262.012 109.352C262.012 109.392 262.002 109.512 261.983 109.732C261.963 109.953 261.954 110.273 261.934 110.724C261.925 111.165 261.915 111.746 261.915 112.468V116.867C261.915 117.257 261.915 117.658 261.915 118.069C261.915 118.48 261.925 118.901 261.934 119.331H261.131L254.558 110.173H254.955V115.133C254.955 115.875 254.965 116.466 254.974 116.907C254.984 117.347 255.003 117.678 255.023 117.899C255.042 118.119 255.052 118.249 255.071 118.299L256.281 118.56L256.233 119.261H252.796L252.748 118.56L253.842 118.299C253.861 118.249 253.88 118.119 253.9 117.909C253.909 117.698 253.919 117.368 253.939 116.917C253.948 116.466 253.958 115.875 253.958 115.133V111.967C253.958 111.416 253.948 110.955 253.939 110.594C253.929 110.233 253.909 109.963 253.9 109.762C253.89 109.562 253.871 109.432 253.842 109.352L252.748 109.091L252.796 108.39H255.245L261.247 116.606H260.918V116.616Z" fill="#004B5C"/>
<path d="M273.192 108.328L273.589 111.324L272.805 111.415L272.05 109.32C271.953 109.3 271.847 109.28 271.721 109.27C271.595 109.26 271.488 109.26 271.392 109.26H270.753C270.637 109.26 270.472 109.26 270.269 109.26C270.065 109.26 269.882 109.27 269.717 109.28C269.717 109.381 269.717 109.611 269.707 109.972C269.698 110.332 269.698 110.753 269.698 111.234C269.698 111.715 269.698 112.176 269.698 112.617V115.112C269.698 115.894 269.707 116.565 269.717 117.136C269.727 117.707 269.736 118.088 269.736 118.278L271.256 118.499L271.198 119.24H266.639L266.6 118.499L268.1 118.278C268.1 118.098 268.11 117.717 268.12 117.136C268.129 116.565 268.139 115.884 268.139 115.112V112.617C268.139 112.176 268.139 111.715 268.139 111.234C268.139 110.753 268.139 110.332 268.139 109.972C268.139 109.611 268.129 109.381 268.12 109.28C267.965 109.27 267.791 109.26 267.587 109.26C267.384 109.26 267.22 109.26 267.103 109.26H266.406C266.31 109.26 266.203 109.26 266.097 109.27C265.98 109.28 265.874 109.29 265.768 109.32L265.032 111.425L264.228 111.314L264.625 108.318C264.761 108.329 264.896 108.339 265.042 108.349C265.187 108.359 265.342 108.369 265.487 108.379C265.632 108.389 265.777 108.399 265.922 108.399C266.068 108.399 266.203 108.399 266.348 108.399H271.459C271.595 108.399 271.73 108.399 271.876 108.399C272.021 108.399 272.166 108.389 272.311 108.379C272.456 108.369 272.602 108.359 272.747 108.349C272.902 108.349 273.047 108.339 273.192 108.328Z" fill="#004B5C"/>
<path d="M274.818 119.261L274.78 118.56L275.873 118.279C275.873 118.189 275.873 118.059 275.883 117.879C275.893 117.698 275.893 117.488 275.893 117.237C275.893 116.987 275.893 116.726 275.902 116.436C275.912 116.145 275.912 115.854 275.912 115.574V112.097C275.912 111.526 275.912 111.055 275.902 110.664C275.893 110.273 275.883 109.973 275.873 109.762C275.864 109.552 275.844 109.412 275.835 109.362L274.731 109.101L274.78 108.4H278.69C279.813 108.4 280.665 108.62 281.255 109.071C281.846 109.522 282.136 110.183 282.136 111.065C282.136 111.666 281.972 112.207 281.652 112.688C281.333 113.159 280.878 113.54 280.307 113.81C279.726 114.081 279.068 114.221 278.332 114.221H277.19V113.39H278.216C278.952 113.39 279.532 113.199 279.939 112.818C280.346 112.438 280.559 111.907 280.559 111.225C280.559 110.574 280.375 110.073 280.026 109.732C279.668 109.392 279.155 109.221 278.487 109.221H277.451C277.442 109.251 277.432 109.291 277.422 109.372C277.413 109.442 277.413 109.572 277.413 109.742C277.413 109.913 277.413 110.163 277.413 110.504C277.413 110.834 277.413 111.285 277.413 111.836V115.594C277.413 116.125 277.413 116.566 277.422 116.927C277.432 117.287 277.442 117.568 277.461 117.788C277.48 118.009 277.49 118.169 277.509 118.299L278.564 118.58L278.506 119.281H274.818V119.261ZM283.288 119.442C282.766 119.442 282.301 119.341 281.894 119.141C281.488 118.941 281.101 118.6 280.723 118.119C280.346 117.638 279.929 116.997 279.484 116.195L278.264 113.901L279.6 113.59L281.527 116.536C281.856 117.037 282.165 117.448 282.427 117.748C282.698 118.049 282.959 118.279 283.221 118.42C283.482 118.57 283.772 118.67 284.082 118.73L284.063 119.382C283.947 119.412 283.821 119.422 283.675 119.442C283.53 119.462 283.424 119.442 283.288 119.442Z" fill="#004B5C"/>
<path d="M283.559 119.261L283.521 118.56L284.392 118.299L288.07 108.72L289.106 108.069L293.007 118.299L293.898 118.56L293.84 119.261H290.229L290.19 118.56L291.284 118.299L290.229 115.564L290.035 114.993L288.09 109.963L288.496 109.722L286.638 114.993L286.444 115.544L285.495 118.299L286.589 118.56L286.55 119.261H283.559ZM286.066 115.834V114.853C286.289 114.863 286.599 114.873 286.996 114.893C287.393 114.913 287.867 114.913 288.448 114.913C289.009 114.913 289.484 114.903 289.89 114.893C290.287 114.883 290.597 114.873 290.81 114.853V115.834C290.403 115.824 290.006 115.814 289.6 115.804C289.193 115.794 288.816 115.794 288.448 115.794C288.09 115.794 287.722 115.794 287.335 115.804C286.938 115.814 286.512 115.824 286.066 115.834Z" fill="#004B5C"/>
<path d="M298.215 119.261L298.166 118.56L299.27 118.299C299.289 118.239 299.309 118.099 299.318 117.879C299.328 117.658 299.328 117.358 299.338 116.967C299.347 116.586 299.347 116.125 299.347 115.584V112.107C299.347 111.556 299.347 111.075 299.338 110.694C299.328 110.313 299.328 109.993 299.318 109.772C299.309 109.552 299.299 109.412 299.27 109.372L298.166 109.111L298.215 108.41H302.019L302.058 109.111L300.964 109.372C300.945 109.412 300.916 109.532 300.906 109.732C300.896 109.933 300.877 110.233 300.867 110.614C300.858 110.995 300.858 111.496 300.858 112.117V115.594C300.858 116.185 300.858 116.676 300.867 117.057C300.877 117.438 300.887 117.728 300.906 117.939C300.925 118.149 300.945 118.269 300.964 118.319L302.058 118.58L302.019 119.281H298.215V119.261ZM300.645 114.231V113.139C300.867 113.149 301.216 113.159 301.68 113.179C302.145 113.189 302.706 113.199 303.365 113.199C304.023 113.199 304.575 113.189 305.02 113.179C305.465 113.169 305.794 113.159 306.007 113.139V114.231C305.746 114.191 305.407 114.171 304.991 114.171C304.575 114.161 304.033 114.161 303.365 114.161C302.677 114.161 302.116 114.161 301.68 114.171C301.254 114.171 300.906 114.191 300.645 114.231ZM304.652 119.261L304.613 118.56L305.707 118.299C305.727 118.249 305.756 118.119 305.765 117.919C305.775 117.718 305.794 117.418 305.804 117.037C305.814 116.656 305.814 116.165 305.814 115.574V112.097C305.814 111.476 305.814 110.985 305.804 110.594C305.794 110.213 305.785 109.923 305.765 109.712C305.746 109.502 305.727 109.392 305.707 109.352L304.613 109.091L304.652 108.39H308.495L308.553 109.091L307.45 109.352C307.421 109.392 307.411 109.512 307.392 109.712C307.382 109.913 307.372 110.213 307.353 110.594C307.343 110.975 307.333 111.476 307.333 112.097V115.574C307.333 116.165 307.343 116.656 307.353 117.037C307.362 117.418 307.372 117.708 307.392 117.919C307.401 118.119 307.421 118.249 307.45 118.299L308.553 118.56L308.495 119.261H304.652Z" fill="#004B5C"/>
<path d="M315.59 119.421C314.555 119.421 313.635 119.191 312.832 118.72C312.028 118.249 311.399 117.597 310.944 116.756C310.489 115.914 310.266 114.952 310.266 113.87C310.266 112.788 310.499 111.816 310.954 110.964C311.409 110.112 312.048 109.441 312.87 108.96C313.683 108.469 314.603 108.229 315.629 108.229C316.626 108.229 317.507 108.459 318.272 108.93C319.037 109.401 319.637 110.042 320.072 110.874C320.508 111.706 320.721 112.658 320.721 113.74C320.721 114.561 320.585 115.323 320.314 116.014C320.043 116.706 319.666 117.307 319.191 117.818C318.717 118.329 318.165 118.72 317.556 119C316.936 119.291 316.278 119.421 315.59 119.421ZM315.755 118.429C316.413 118.429 316.975 118.259 317.449 117.908C317.923 117.567 318.282 117.076 318.543 116.435C318.804 115.794 318.93 115.052 318.93 114.191C318.93 113.189 318.785 112.317 318.485 111.565C318.185 110.814 317.778 110.223 317.265 109.802C316.742 109.381 316.133 109.161 315.436 109.161C314.419 109.161 313.625 109.551 313.035 110.333C312.444 111.114 312.154 112.177 312.154 113.529C312.154 114.491 312.309 115.343 312.619 116.074C312.928 116.806 313.354 117.387 313.906 117.808C314.419 118.219 315.048 118.429 315.755 118.429Z" fill="#004B5C"/>
<path d="M329.956 119.351C329.791 119.321 329.597 119.311 329.394 119.291C329.191 119.281 328.978 119.271 328.775 119.261C328.571 119.251 328.387 119.251 328.223 119.251H322.502L322.463 118.55L323.557 118.289C323.567 118.229 323.576 118.089 323.596 117.869C323.606 117.658 323.615 117.347 323.625 116.957C323.635 116.566 323.635 116.105 323.635 115.574V112.097C323.635 111.546 323.635 111.075 323.635 110.694C323.635 110.313 323.625 110.013 323.615 109.782C323.606 109.562 323.586 109.422 323.557 109.372L322.463 109.091L322.502 108.39H326.703L326.752 109.131L325.27 109.372C325.251 109.412 325.232 109.532 325.212 109.732C325.203 109.933 325.193 110.233 325.174 110.624C325.164 111.015 325.154 111.506 325.154 112.097V115.574C325.154 116.215 325.164 116.776 325.174 117.247C325.183 117.718 325.193 118.029 325.212 118.159C325.377 118.189 325.551 118.199 325.725 118.209C325.9 118.219 326.103 118.219 326.345 118.219H327.681C327.952 118.219 328.184 118.209 328.378 118.199C328.571 118.189 328.755 118.169 328.949 118.149L329.878 116.335L330.682 116.516L329.956 119.351Z" fill="#004B5C"/>
<path d="M331.621 119.261L331.582 118.56L332.676 118.299C332.695 118.239 332.714 118.099 332.724 117.879C332.734 117.658 332.734 117.357 332.743 116.967C332.753 116.586 332.753 116.125 332.753 115.584V112.107C332.753 111.556 332.753 111.075 332.743 110.694C332.734 110.313 332.734 109.993 332.724 109.772C332.714 109.552 332.705 109.412 332.676 109.372L331.582 109.111L331.621 108.41H335.425L335.464 109.111L334.37 109.372C334.35 109.412 334.321 109.532 334.312 109.732C334.302 109.933 334.283 110.233 334.273 110.614C334.263 110.995 334.263 111.496 334.263 112.117V115.594C334.263 116.185 334.263 116.676 334.273 117.057C334.283 117.438 334.292 117.728 334.312 117.939C334.331 118.149 334.35 118.269 334.37 118.319L335.464 118.58L335.425 119.281H331.621V119.261Z" fill="#004B5C"/>
<path d="M337.167 108.4H341.494C343.382 108.4 344.843 108.861 345.899 109.792C346.954 110.724 347.476 112.027 347.476 113.71C347.476 114.792 347.234 115.754 346.741 116.596C346.257 117.438 345.569 118.089 344.698 118.56C343.827 119.031 342.83 119.261 341.697 119.261H337.158L337.119 118.56L338.213 118.299C338.232 118.189 338.261 117.879 338.271 117.358C338.29 116.836 338.3 116.245 338.3 115.584V112.107C338.3 111.366 338.29 110.744 338.271 110.233C338.251 109.722 338.232 109.442 338.213 109.362L337.119 109.101L337.167 108.4ZM339.868 109.402C339.868 109.522 339.868 109.682 339.858 109.873C339.849 110.063 339.849 110.333 339.839 110.674C339.829 111.015 339.829 111.496 339.829 112.097V115.574C339.829 115.945 339.829 116.295 339.839 116.616C339.849 116.937 339.858 117.237 339.878 117.498C339.897 117.758 339.907 117.969 339.926 118.149C340.304 118.199 340.652 118.239 340.952 118.269C341.252 118.299 341.552 118.319 341.833 118.319C343.091 118.319 344.059 117.969 344.708 117.277C345.366 116.576 345.695 115.574 345.695 114.251C345.695 113.45 345.598 112.738 345.415 112.127C345.221 111.506 344.94 110.985 344.563 110.564C344.185 110.143 343.73 109.812 343.188 109.602C342.646 109.382 342.017 109.281 341.301 109.281C341.088 109.281 340.855 109.291 340.623 109.311C340.371 109.311 340.129 109.352 339.868 109.402Z" fill="#004B5C"/>
<path d="M348.444 119.261L348.406 118.56L349.277 118.299L352.955 108.72L353.991 108.069L357.892 118.299L358.783 118.56L358.725 119.261H355.114L355.075 118.56L356.169 118.299L355.114 115.564L354.92 114.993L352.975 109.963L353.381 109.722L351.523 114.993L351.329 115.544L350.38 118.299L351.474 118.56L351.436 119.261H348.444ZM350.942 115.834V114.853C351.164 114.863 351.474 114.873 351.871 114.893C352.268 114.913 352.742 114.913 353.323 114.913C353.885 114.913 354.359 114.903 354.765 114.893C355.162 114.883 355.472 114.873 355.685 114.853V115.834C355.278 115.824 354.882 115.814 354.475 115.804C354.068 115.794 353.691 115.794 353.323 115.794C352.965 115.794 352.597 115.794 352.21 115.804C351.813 115.814 351.397 115.824 350.942 115.834Z" fill="#004B5C"/>
<path d="M366.865 109.362L363.197 115.223L363.642 113.961V115.714C363.642 116.185 363.642 116.576 363.652 116.887C363.661 117.197 363.661 117.458 363.671 117.648C363.681 117.838 363.681 117.989 363.7 118.079C363.71 118.179 363.719 118.249 363.719 118.279L364.968 118.52L364.929 119.241H360.854L360.796 118.52L362.045 118.279C362.054 118.239 362.074 118.179 362.084 118.079C362.093 117.979 362.103 117.838 362.113 117.648C362.122 117.458 362.122 117.207 362.132 116.887C362.142 116.576 362.142 116.185 362.142 115.714V113.961L362.5 115.223L358.957 109.362L358.066 109.101L358.105 108.4H361.803L361.851 109.101L360.757 109.362L363.381 113.73H363.129L365.646 109.362L364.397 109.101L364.455 108.4H367.708L367.746 109.101L366.865 109.362Z" fill="#004B5C"/>
<path d="M371.502 119.421C370.979 119.421 370.437 119.351 369.895 119.221C369.344 119.09 368.898 118.91 368.54 118.7L368.453 116.315L369.218 116.245L369.721 117.888C370.011 118.088 370.321 118.239 370.679 118.339C371.038 118.439 371.396 118.499 371.783 118.499C372.364 118.499 372.838 118.349 373.196 118.058C373.554 117.758 373.729 117.357 373.729 116.856C373.729 116.425 373.603 116.064 373.351 115.774C373.099 115.483 372.78 115.233 372.373 115.012C371.976 114.792 371.551 114.591 371.105 114.381C370.66 114.181 370.234 113.94 369.847 113.68C369.45 113.419 369.131 113.088 368.869 112.698C368.608 112.307 368.482 111.826 368.482 111.245C368.482 110.654 368.647 110.123 368.976 109.662C369.305 109.201 369.75 108.84 370.321 108.589C370.892 108.339 371.551 108.209 372.286 108.209C372.596 108.209 372.896 108.229 373.186 108.259C373.477 108.289 373.748 108.339 374 108.409C374.251 108.479 374.474 108.549 374.677 108.64L374.822 110.954L374.058 111.024L373.554 109.471C373.177 109.221 372.683 109.101 372.093 109.101C371.483 109.101 370.999 109.251 370.641 109.561C370.273 109.872 370.099 110.273 370.099 110.764C370.099 111.205 370.224 111.585 370.486 111.886C370.737 112.187 371.067 112.447 371.473 112.678C371.87 112.898 372.296 113.108 372.741 113.319C373.186 113.519 373.612 113.75 374.009 114.01C374.406 114.271 374.735 114.591 374.997 114.962C375.248 115.343 375.384 115.804 375.384 116.355C375.384 116.946 375.219 117.477 374.88 117.938C374.542 118.399 374.087 118.77 373.516 119.03C372.915 119.291 372.248 119.421 371.502 119.421Z" fill="#004B5C"/>
<defs>
<radialGradient id="paint0_radial" cx="0" cy="0" r="1" gradientUnits="userSpaceOnUse" gradientTransform="translate(-41.1024 -36.3394) scale(280.716 290.576)">
<stop offset="0.2404" stop-color="#FF9B00"/>
<stop offset="0.2916" stop-color="#FFAA00"/>
<stop offset="0.4121" stop-color="#FEC900"/>
<stop offset="0.5388" stop-color="#FDE100"/>
<stop offset="0.6728" stop-color="#FCF200"/>
<stop offset="0.8189" stop-color="#FCFC00"/>
<stop offset="1" stop-color="#FCFF00"/>
</radialGradient>
<linearGradient id="paint1_linear" x1="2.67475" y1="95.2729" x2="123.977" y2="95.2729" gradientUnits="userSpaceOnUse">
<stop stop-color="#007474"/>
<stop offset="1" stop-color="#7BD2FD"/>
</linearGradient>
<linearGradient id="paint2_linear" x1="38.682" y1="138.907" x2="157.266" y2="27.8669" gradientUnits="userSpaceOnUse">
<stop stop-color="#013A44"/>
<stop offset="1" stop-color="#02A8BA"/>
</linearGradient>
</defs>
</svg>
