<svg id="SvgjsSvg1001" width="288" height="288" xmlns="http://www.w3.org/2000/svg" version="1.1" xmlns:xlink="http://www.w3.org/1999/xlink" xmlns:svgjs="http://svgjs.com/svgjs"><defs id="SvgjsDefs1002"></defs><g id="SvgjsG1008"><svg xmlns="http://www.w3.org/2000/svg" width="288" height="288" class="MuiSvgIcon-root" viewBox="0 0 24 24"><path fill-rule="evenodd" d="M19.1894 5.25L12.5302 11.9093C12.2377 12.2017 11.7622 12.2017 11.4697 11.9093L4.81043 5.25H19.1894ZM10.4092 12.9698C10.8479 13.4085 11.4239 13.6275 11.9999 13.6275C12.5759 13.6275 13.1519 13.4085 13.5907 12.9698L21.5302 5.03025L21.6944 4.866C21.5234 4.22475 20.9452 3.75 20.2499 3.75H3.74993C3.05468 3.75 2.47643 4.22475 2.30543 4.866L2.46968 5.03025L10.4092 12.9698Z" clip-rule="evenodd" fill="#ffffff" class="color000 svgShape"></path><path fill-rule="evenodd" d="M20.25 8.43164V18.7501H3.75V8.43164L2.25 6.93164V18.7501C2.25 19.5781 2.922 20.2501 3.75 20.2501H20.25C21.078 20.2501 21.75 19.5781 21.75 18.7501V6.93164L20.25 8.43164Z" clip-rule="evenodd" fill="#ffffff" class="color000 svgShape"></path></svg></g></svg>