<svg id="SvgjsSvg1001" width="288" height="288" xmlns="http://www.w3.org/2000/svg" version="1.1" xmlns:xlink="http://www.w3.org/1999/xlink" xmlns:svgjs="http://svgjs.com/svgjs"><defs id="SvgjsDefs1002"></defs><g id="SvgjsG1008"><svg xmlns="http://www.w3.org/2000/svg" width="288" height="288" class="MuiSvgIcon-root" viewBox="0 0 24 24"><path fill-rule="evenodd" d="M20.9524 19.209L19.2094 20.952C19.1697 20.991 19.1224 21 19.0842 21H19.0834L18.8764 20.9955C16.8064 20.9528 11.9562 20.8538 7.55069 16.449C3.14595 12.0435 3.04694 7.19325 3.00419 5.1225L2.99969 4.91625C2.99969 4.881 3.00644 4.8315 3.04769 4.79025L4.79069 3.04725C4.82219 3.01575 4.86119 3 4.90544 3C4.95044 3 4.98869 3.01575 5.02019 3.04725L8.48744 6.51375C8.51894 6.54525 8.53394 6.58425 8.53394 6.6285C8.53394 6.6735 8.51894 6.71175 8.48744 6.74325L6.69419 8.53575C6.02819 9.2025 5.82719 10.1947 6.18419 11.0647C6.57494 12.018 7.43669 13.8217 8.80694 15.1935C10.1779 16.5637 11.9817 17.4247 12.9357 17.8162C13.2169 17.931 13.5132 17.9895 13.8162 17.9895C14.4372 17.9895 15.0229 17.7465 15.4647 17.3055L17.2564 15.5122C17.2879 15.4808 17.3269 15.4657 17.3719 15.4657C17.4154 15.4657 17.4544 15.4808 17.4859 15.5122L20.9524 18.9795C20.9839 19.011 20.9997 19.0492 20.9997 19.0942C20.9997 19.1385 20.9839 19.1775 20.9524 19.209ZM22.013 17.919L18.5465 14.4517C18.2217 14.1277 17.7965 13.9657 17.372 13.9657C16.946 13.9657 16.5207 14.1277 16.196 14.4517L14.4042 16.245C14.2445 16.4047 14.0322 16.4895 13.8162 16.4895C13.712 16.4895 13.6062 16.47 13.5042 16.428C12.686 16.092 11.0615 15.327 9.86745 14.1322C8.6727 12.9382 7.9077 11.3145 7.5717 10.4948C7.4442 10.185 7.51845 9.83325 7.7547 9.59625L9.54795 7.80375C10.1967 7.155 10.1967 6.102 9.54795 5.45325L6.0807 1.98675C5.75595 1.662 5.33145 1.5 4.90545 1.5C4.4802 1.5 4.05495 1.662 3.7302 1.98675L1.9872 3.72975C1.6632 4.053 1.48995 4.49325 1.50045 4.95C1.5477 7.03425 1.50345 12.5235 6.4902 17.5095C11.4762 22.4963 16.9662 22.452 19.0497 22.4993C19.0617 22.5 19.0752 22.5 19.0887 22.5C19.5312 22.5 19.9557 22.3268 20.27 22.0125L22.013 20.2695C22.6625 19.62 22.6625 18.5685 22.013 17.919Z" clip-rule="evenodd" fill="#ffffff" class="color000 svgShape"></path></svg></g></svg>