<svg xmlns="http://www.w3.org/2000/svg" xmlns:xlink="http://www.w3.org/1999/xlink" width="200" zoomAndPan="magnify" viewBox="0 0 150 74.999997" height="100" preserveAspectRatio="xMidYMid meet" version="1.0"><defs><clipPath id="id1"><path d="M 6.25 0 L 143.5 0 L 143.5 75 L 6.25 75 Z M 6.25 0 " clip-rule="nonzero"/></clipPath></defs><g clip-path="url(#id1)"><path fill="rgb(100%, 100%, 100%)" d="M 141.679688 73.175781 C 140.550781 74.304688 138.988281 75.011719 137.261719 75.011719 C 135.535156 75.011719 133.972656 74.3125 132.84375 73.175781 L 74.875 15.089844 L 16.90625 73.175781 C 15.777344 74.304688 14.210938 75.003906 12.488281 75.003906 C 9.039062 75.003906 6.242188 72.207031 6.242188 68.75 C 6.242188 67.023438 6.941406 65.457031 8.070312 64.324219 L 70.457031 1.824219 C 71.585938 0.695312 73.148438 -0.0117188 74.875 -0.0117188 C 76.601562 -0.0117188 78.164062 0.6875 79.292969 1.824219 L 141.679688 64.324219 C 142.808594 65.457031 143.511719 67.019531 143.511719 68.75 C 143.511719 70.480469 142.8125 72.042969 141.679688 73.175781 Z M 141.679688 73.175781 " fill-opacity="1" fill-rule="nonzero"/></g></svg>